<?xml version="1.0" encoding="UTF-8"?>
<svg width="70px" height="70px" viewBox="0 0 70 70" version="1.1" xmlns="http://www.w3.org/2000/svg" xmlns:xlink="http://www.w3.org/1999/xlink">
    <title>编组 36</title>
    <defs>
        <linearGradient x1="129.716421%" y1="150.597249%" x2="0%" y2="0%" id="linearGradient-1">
            <stop stop-color="#D8B1A3" offset="0%"></stop>
            <stop stop-color="#F6E3DB" offset="100%"></stop>
        </linearGradient>
        <rect id="path-2" x="0" y="0" width="70" height="70" rx="5"></rect>
        <path d="M12.5794542,34.7445333 C17.4319285,34.7445333 21.2550497,30.7447629 22.7040976,27.7124198 C24.744774,23.4420082 25.1000174,16.0318078 25.1000174,10.2350909 C25.1000174,-0.362362365 17.9152504,0.00150241393 11.9148923,0.00150241393 C5.91453424,0.00150241393 -5.68434189e-14,-0.362362365 -5.68434189e-14,10.2350909 C-5.68434189e-14,16.0809612 0.335682804,23.446298 2.43633209,27.7124198 C4.14723015,31.1870119 7.72698,34.7445333 12.5794542,34.7445333 Z" id="path-4"></path>
    </defs>
    <g id="我的" stroke="none" stroke-width="1" fill="none" fill-rule="evenodd">
        <g id="我的-女" transform="translate(-14.000000, -74.000000)">
            <g id="编组-36" transform="translate(14.000000, 74.000000)">
                <mask id="mask-3" fill="white">
                    <use xlink:href="#path-2"></use>
                </mask>
                <use id="蒙版" fill="url(#linearGradient-1)" xlink:href="#path-2"></use>
                <g id="编组-30" mask="url(#mask-3)">
                    <g transform="translate(5.000000, 5.000000)">
                        <path d="M46.1608532,51.4268995 L46.1608532,17.7578087 C46.1608532,8.29893842 38.5880696,0.631009037 29.2465675,0.631009037 C19.9050654,0.631009037 12.3322818,8.29893842 12.3322818,17.7578087 L12.3322818,51.4268995 L46.1608532,51.4268995 Z" id="Hair" stroke="none" fill="#7D421E" fill-rule="evenodd"></path>
                        <path d="M7.75200166,49.3339064 C15.1879831,43.9588363 22.5624628,41.2713013 29.8754407,41.2713013 C37.2298481,41.2713013 44.5743181,43.9893734 51.9088506,49.4255178 C54.5387159,51.3746995 56.4587677,54.1306616 57.3760846,57.2729587 L59.6467285,65.051119 L59.6467285,65.051119 L0,65.051119 L2.07789076,57.5072281 C2.98427002,54.2165743 4.98581164,51.333436 7.75200166,49.3339064 Z" id="Rectangle备份-11" stroke="none" fill="#D77362" fill-rule="evenodd"></path>
                        <polygon id="Rectangle备份-13" stroke="none" fill="#FFDAC2" fill-rule="evenodd" points="23.9320509 30.6640625 36.0679491 30.6640625 35.8551805 44.2886353 24.3406541 44.2886353"></polygon>
                        <path d="M24.123626,41.521406 C25.6965184,42.9742491 27.7103757,43.7006707 30.165198,43.7006707 C32.5841213,43.7006707 34.4231718,43.0248755 35.6823496,41.6732852 C35.8485333,41.494828 36.1062006,41.4347438 36.3341974,41.5212393 L37.8719422,42.1046156 C38.0268719,42.1633701 38.1048164,42.3366048 38.0460432,42.4915274 C38.0355808,42.5191058 38.0211086,42.5449906 38.0030937,42.5683464 C36.2487978,44.8427488 33.6361659,45.97995 30.165198,45.97995 C26.6966966,45.97995 23.875405,44.8181931 21.701323,42.4946794 C21.5881541,42.3736879 21.594461,42.1838622 21.7154319,42.0706713 C21.745231,42.0427887 21.7804061,42.0212797 21.8188047,42.0074605 L23.5133197,41.3976256 C23.7239167,41.3218027 23.9592035,41.3695328 24.123626,41.521406 Z" id="路径-21备份" stroke="none" fill="#B94F40" fill-rule="evenodd"></path>
                        <path d="M17.6772026,26.4654102 C19.7128624,26.6793667 21.5771007,24.8166436 21.8192753,22.5125067 C22.0614498,20.2083697 20.4641884,19.5309777 18.4285286,19.3170212 C16.3928688,19.1030648 14.6896737,19.4335648 14.4474991,21.7377018 C14.2053246,24.0418387 15.6415429,26.2514537 17.6772026,26.4654102 Z" id="Oval备份" stroke="none" fill="#FFDAC2" fill-rule="evenodd"></path>
                        <path d="M41.8196503,26.4654102 C39.7839905,26.6793667 37.9197523,24.8166436 37.6775777,22.5125067 C37.4354032,20.2083697 39.0326646,19.5309777 41.0683244,19.3170212 C43.1039841,19.1030648 44.8071793,19.4335648 45.0493539,21.7377018 C45.2915284,24.0418387 43.8553101,26.2514537 41.8196503,26.4654102 Z" id="Oval备份-2" stroke="none" fill="#FFDAC2" fill-rule="evenodd"></path>
                        <g id="路径-20备份" stroke="none" stroke-width="1" fill="none" fill-rule="evenodd" transform="translate(17.198418, 3.604134)">
                            <mask id="mask-5" fill="white">
                                <use xlink:href="#path-4"></use>
                            </mask>
                            <use id="蒙版" fill="#FFE7D6" xlink:href="#path-4"></use>
                        </g>
                        <path d="M31.1436932,26.2496659 C31.4229272,24.7782844 30.8248463,22.860216 30.2660186,21.9853298 C30.0772276,21.6897635 29.427653,21.6845403 29.2431909,21.9718052 C28.6834554,22.8434879 28.0774535,24.7831003 28.3493444,26.2455369 C28.4115842,26.5803101 31.0886149,26.5398926 31.1436932,26.2496659 Z" id="椭圆形备份-7" stroke="none" fill="#FBD3B9" fill-rule="evenodd"></path>
                        <path d="M27.2089042,30.5689187 C27.9982546,31.0463702 28.9239069,31.321157 29.913739,31.321157 C30.8717301,31.321157 31.7696039,31.0637647 32.5419771,30.6143634" id="路径备份-5" stroke="#EE9585" stroke-width="1.2" fill="none" stroke-linecap="round"></path>
                        <path d="M46.1645712,20.1065483 C41.9683638,20.0381309 37.2514833,16.8827941 34.3040983,11.7136332 C33.633201,10.5370051 33.0973869,9.33215093 32.6939752,8.12908388 C30.7203185,10.5693935 27.8204677,13.0369198 24.2997749,15.0951316 C22.1137364,16.3730988 19.9124088,17.3622735 17.821714,18.0508063 L17.821714,53.8629539 C17.821714,57.1276662 15.4375258,59.8285251 12.3359998,60.2777376 L12.3359998,17.7578087 C12.3359998,8.29893842 19.9087834,0.631009037 29.2502855,0.631009037 C38.5917875,0.631009037 46.1645712,8.29893842 46.1645712,17.7578087 L46.1645712,20.1065483 L46.1645712,20.1065483 Z" id="Top" stroke="none" fill="#A55728" fill-rule="evenodd"></path>
                    </g>
                </g>
            </g>
        </g>
    </g>
</svg>