<?xml version="1.0" encoding="UTF-8"?>
<svg width="16px" height="16px" viewBox="0 0 16 16" version="1.1" xmlns="http://www.w3.org/2000/svg" xmlns:xlink="http://www.w3.org/1999/xlink">
    <title>编组 13</title>
    <g id="新闻" stroke="none" stroke-width="1" fill="none" fill-rule="evenodd">
        <g id="新闻咨询-详情" transform="translate(-339.000000, -1196.000000)" fill="#353B48" fill-rule="nonzero" stroke="#353B48" stroke-width="0.4">
            <g id="编组-13" transform="translate(339.000000, 1196.000000)">
                <g id="编组" transform="translate(3.000000, 3.000000)">
                    <path d="M5.10264243,9.9960597 L2.52792264,9.9960597 C2.35668976,9.9960597 2.21659012,9.85596008 2.21659012,9.68472719 C2.21659012,9.5134943 2.35668975,9.37339469 2.52792264,9.37339469 L5.10264243,9.37339469 C5.27387531,9.37339469 5.41397494,9.51349431 5.41397494,9.68472719 C5.41397494,9.85596007 5.27387532,9.9960597 5.10264243,9.9960597 Z" id="路径"></path>
                    <path d="M2.5248093,9.9960597 L0.631907695,9.9960597 C0.289441941,9.9960597 0.00924268247,9.71586045 0.00924268247,9.37339469 L0.00924268247,4.3235815 C0.00924268247,3.98111574 0.289441941,3.70091648 0.631907695,3.70091648 L2.5248093,3.70091648 C2.69604218,3.70091648 2.83614182,3.84101611 2.83614182,4.01224898 L2.83614182,9.68472719 C2.83614182,9.85596007 2.69915551,9.9960597 2.5248093,9.9960597 Z M0.631907695,4.3235815 L0.631907695,9.37339469 L2.2134768,9.37339469 L2.2134768,4.3235815 L0.631907695,4.3235815 Z" id="形状"></path>
                    <path d="M4.75581802,9.99608046 C4.58458515,9.99608046 4.44448553,9.85596008 4.44448553,9.68472719 C4.44448553,9.5134943 4.58458515,9.37339469 4.75581802,9.37339469 L8.29380059,9.37339469 C8.44946685,9.37339469 8.58333982,9.26131499 8.60824641,9.10564875 L9.34299113,4.69406717 C9.35855775,4.60066742 9.33365115,4.50726767 9.27138465,4.43566119 C9.20911815,4.36405471 9.12194504,4.32358148 9.0285453,4.3235815 L6.0304133,4.3235815 C5.74087408,4.3235815 5.46378814,4.17102857 5.32680184,3.93752919 C5.20849549,3.73827639 5.20849549,3.50789033 5.32368852,3.3055242 C5.70351417,2.63304599 5.94635353,1.01723031 5.76578066,0.761937661 C5.70351417,0.702784487 5.60700108,0.621838038 5.51671467,0.621838024 C5.42954156,0.621838024 5.32991517,0.699671153 5.26453533,0.768164303 C5.22094878,0.827317476 5.10575575,1.13242333 5.012356,1.37837602 C4.59828378,2.48049308 3.90089897,4.32669482 2.52169598,4.32669482 C2.3504631,4.32669482 2.21036348,4.18659519 2.21036348,4.01536232 C2.21036348,3.84412944 2.3504631,3.70402982 2.52169598,3.70402981 C3.47126011,3.70402981 4.09392513,2.04774089 4.43016422,1.16044327 C4.6138504,0.674764555 4.69791017,0.453718482 4.82244319,0.32918548 C5.25830869,-0.106680022 5.77512064,-0.103566701 6.20787282,0.32918548 C6.74336473,0.864677387 6.2296661,2.95994513 5.86229374,3.61374338 C5.86229374,3.6417633 5.92767357,3.70402981 6.02729997,3.70402981 L9.02543198,3.70402981 C9.3025179,3.70402981 9.5640372,3.82544949 9.74461006,4.03715559 C9.92518291,4.2488617 9.9999027,4.52594763 9.95320283,4.79992022 L9.22468477,9.20838847 C9.14979615,9.66384688 8.75537217,9.99759024 8.29380059,9.99608046 L4.75581802,9.99608046 Z" id="路径"></path>
                </g>
            </g>
        </g>
    </g>
</svg>