<?xml version="1.0" encoding="UTF-8"?>
<svg width="16px" height="16px" viewBox="0 0 16 16" version="1.1" xmlns="http://www.w3.org/2000/svg" xmlns:xlink="http://www.w3.org/1999/xlink">
    <title>ic_like</title>
    <defs>
        <filter id="filter-1">
            <feColorMatrix in="SourceGraphic" type="matrix" values="0 0 0 0 0.878431 0 0 0 0 0.525490 0 0 0 0 0.125490 0 0 0 1.000000 0"></feColorMatrix>
        </filter>
    </defs>
    <g id="新闻" stroke="none" stroke-width="1" fill="none" fill-rule="evenodd">
        <g id="编组-2" transform="translate(-339.000000, -1090.000000)" filter="url(#filter-1)">
            <g transform="translate(341.500000, 1093.000000)">
                <g id="编组" transform="translate(2.800000, 0.000000)" fill="#D24A38" fill-rule="nonzero" stroke="#D24A38" stroke-width="0.4">
                    <path d="M1.7986924,5.62266501 L-0.776027391,5.62266501 C-0.947260267,5.62266501 -1.0873599,5.48256539 -1.0873599,5.3113325 C-1.0873599,5.14009961 -0.947260281,5 -0.776027391,5 L1.7986924,5 C1.96992528,5 2.11002492,5.14009962 2.11002492,5.3113325 C2.11002492,5.48256538 1.96992529,5.62266501 1.7986924,5.62266501 Z" id="路径" transform="translate(0.511333, 5.311333) rotate(-270.000000) translate(-0.511333, -5.311333) "></path>
                    <path d="M2.13573406,8.29744701 L-1.08529805,8.29744701 C-1.29951421,8.29744701 -1.474782,8.15734739 -1.474782,7.9861145 C-1.474782,7.81488161 -1.29951423,7.674782 -1.08529805,7.674782 L2.13573406,7.674782 C2.34995022,7.674782 2.49744701,7.81488163 2.49744701,7.9861145 C2.49744701,8.15734738 2.34995024,8.29744699 2.13573406,8.29744701 Z" id="路径" transform="translate(0.511333, 7.986115) rotate(-270.000000) translate(-0.511333, -7.986115) "></path>
                    <path d="M0.755818025,9.99613949 C0.235031128,9.99613949 0.210363482,9.84675474 0.210363482,9.67552185 C0.210363482,9.50428896 0.584585148,9.37339469 0.755818025,9.37339469 L6.29380059,9.37339469 C6.44946685,9.37339469 6.58333982,9.26131499 6.60824641,9.10564875 L7.34299113,4.69406717 C7.35855775,4.60066742 7.33365115,4.50726767 7.27138465,4.43566119 C7.20911815,4.36405471 6.90260385,9.48413085 6.8092041,9.48413086 L3.06433105,9.67552185 C2.77479183,9.67552185 1.93392234,9.60689408 1.79693604,9.37339469 C1.67862969,9.1741419 2.3149712,5.51369864 2.43016422,5.31133251 C2.80998987,4.6388543 3.94635353,1.01723031 3.76578066,0.761937661 C3.70351417,0.702784487 2.4123079,6.30895997 2.32202148,6.30895996 C2.23484838,6.30895996 2.06537984,9.41563771 2,9.48413086 C1.95641345,9.54328403 0.72303842,9.23817818 0.629638672,9.48413086 C0.215566446,10.5862479 1.90089897,4.32669482 0.521695981,4.32669482 C0.350463105,4.32669482 0.210363482,4.18659519 0.210363482,4.01536232 C0.210363482,3.84412944 0.350463105,3.70402982 0.521695981,3.70402981 C1.47126011,3.70402981 2.09392513,2.04774089 2.43016422,1.16044327 C2.6138504,0.674764555 2.69791017,0.453718482 2.82244319,0.32918548 C3.25830869,-0.106680022 3.77512064,-0.103566701 4.20787282,0.32918548 C4.74336473,0.864677387 4.2296661,2.95994513 3.86229374,3.61374338 C3.86229374,3.6417633 3.92767357,3.70402981 4.02729997,3.70402981 L7.02543198,3.70402981 C7.3025179,3.70402981 7.5640372,3.82544949 7.74461006,4.03715559 C7.92518291,4.2488617 7.9999027,4.52594763 7.95320283,4.79992022 L7.22468477,9.20838847 C7.14979615,9.66384688 6.75537217,9.99759024 6.29380059,9.99613949 L0.755818025,9.99613949 Z" id="路径"></path>
                </g>
                <rect id="矩形" fill="#D24A38" x="0" y="3.49" width="2" height="6.7" rx="0.6"></rect>
            </g>
        </g>
    </g>
</svg>