<?xml version="1.0" encoding="UTF-8"?>
<svg width="70px" height="70px" viewBox="0 0 70 70" version="1.1" xmlns="http://www.w3.org/2000/svg" xmlns:xlink="http://www.w3.org/1999/xlink">
    <title>编组 36</title>
    <defs>
        <linearGradient x1="129.716421%" y1="150.597249%" x2="0%" y2="0%" id="linearGradient-2">
            <stop stop-color="#5D5145" offset="0%"></stop>
            <stop stop-color="#C1B5AD" offset="100%"></stop>
        </linearGradient>
        <rect id="path-3" x="0" y="0" width="70" height="70" rx="5"></rect>
        <path d="M12.5794542,34.7445333 C17.4319285,34.7445333 21.2550497,30.7447629 22.7040976,27.7124198 C24.744774,23.4420082 25.1000174,16.0318078 25.1000174,10.2350909 C25.1000174,-0.362362365 17.9152504,0.00150241393 11.9148923,0.00150241393 C5.91453424,0.00150241393 -4.61852778e-14,-0.362362365 -4.61852778e-14,10.2350909 C-4.61852778e-14,16.0809612 0.335682804,23.446298 2.43633209,27.7124198 C4.14723015,31.1870119 7.72698,34.7445333 12.5794542,34.7445333 Z" id="path-5"></path>
    </defs>
    <g id="我的" stroke="none" stroke-width="1" fill="none" fill-rule="evenodd">
        <g id="我的-男" transform="translate(-14.000000, -74.000000)">
            <g id="编组-36" transform="translate(14.000000, 74.000000)">
                <mask id="mask-4" fill="white">
                    <use xlink:href="#path-3"></use>
                </mask>
                <use id="蒙版" fill="url(#linearGradient-2)" xlink:href="#path-3"></use>
                <g id="编组-30" mask="url(#mask-4)">
                    <g transform="translate(5.000000, 5.000000)">
                        <path d="M8.75200166,49.3339064 C16.1879831,43.9588363 23.5624628,41.2713013 30.8754407,41.2713013 C38.2298481,41.2713013 45.5743181,43.9893734 52.9088506,49.4255178 C55.5387159,51.3746995 57.4587677,54.1306616 58.3760846,57.2729587 L60.6467285,65.051119 L60.6467285,65.051119 L1,65.051119 L3.07789076,57.5072281 C3.98427002,54.2165743 5.98581164,51.333436 8.75200166,49.3339064 Z" id="Rectangle备份-11" stroke="none" fill="#C5AC99" fill-rule="evenodd"></path>
                        <path d="M9.29220869,48.5526278 C12.0931302,46.7934996 15.3133543,45.1511655 18.9528809,43.6256256 C18.9528809,46.1945406 18.9528809,53.1632354 18.9528809,64.5317098 L0.808959961,64.5317098 L2.80861095,57.2718725 C3.80420582,53.6573236 6.11729514,50.5466431 9.29220869,48.5526278 Z" id="Rectangle备份-11" stroke="none" fill="#6B392F" fill-rule="evenodd"></path>
                        <path d="M50.692978,48.2600253 C53.4938995,46.500897 56.7141236,44.858563 60.3536502,43.3330231 C60.3536502,45.9019381 60.3536502,52.8706328 60.3536502,64.2391073 L42.2097293,64.2391073 L44.2093803,56.97927 C45.2049751,53.3647211 47.5180644,50.2540405 50.692978,48.2600253 Z" id="Rectangle备份-11" stroke="none" fill="#6B392F" fill-rule="evenodd" transform="translate(51.281690, 53.786065) scale(-1, 1) translate(-51.281690, -53.786065) "></path>
                        <polygon id="Rectangle备份-13" stroke="none" fill="#FFDAC2" fill-rule="evenodd" points="24.9320509 30.6640625 37.0679491 30.6640625 36.8551805 44.2886353 25.3406541 44.2886353"></polygon>
                        <path d="M25.123626,41.521406 C26.6965184,42.9742491 28.7103757,43.7006707 31.165198,43.7006707 C33.5841213,43.7006707 35.4231718,43.0248755 36.6823496,41.6732852 C36.8485333,41.494828 37.1062006,41.4347438 37.3341974,41.5212393 L38.8719422,42.1046156 C39.0268719,42.1633701 39.1048164,42.3366048 39.0460432,42.4915274 C39.0355808,42.5191058 39.0211086,42.5449906 39.0030937,42.5683464 C37.2487978,44.8427488 34.6361659,45.97995 31.165198,45.97995 C27.6966966,45.97995 24.875405,44.8181931 22.701323,42.4946794 C22.5881541,42.3736879 22.594461,42.1838622 22.7154319,42.0706713 C22.745231,42.0427887 22.7804061,42.0212797 22.8188047,42.0074605 L24.5133197,41.3976256 C24.7239167,41.3218027 24.9592035,41.3695328 25.123626,41.521406 Z" id="路径-21备份" stroke="none" fill="#B38D77" fill-rule="evenodd"></path>
                        <path d="M17.8198831,26.8169135 C20.000119,27.0460655 21.9967587,25.0510486 22.256133,22.5832678 C22.5155072,20.1154869 20.8048054,19.3899853 18.6245695,19.1608333 C16.4443336,18.9316813 14.6201745,19.285654 14.3608003,21.7534349 C14.1014261,24.2212157 15.6396471,26.5877615 17.8198831,26.8169135 Z" id="Oval备份" stroke="none" fill="#FFDAC2" fill-rule="evenodd"></path>
                        <path d="M43.6769699,26.8169135 C41.496734,27.0460655 39.5000942,25.0510486 39.24072,22.5832678 C38.9813458,20.1154869 40.6920475,19.3899853 42.8722835,19.1608333 C45.0525194,18.9316813 46.8766785,19.285654 47.1360527,21.7534349 C47.3954269,24.2212157 45.8572058,26.5877615 43.6769699,26.8169135 Z" id="Oval备份-2" stroke="none" fill="#FFDAC2" fill-rule="evenodd"></path>
                        <g id="路径-20备份" stroke="none" stroke-width="1" fill="none" fill-rule="evenodd" transform="translate(17.198418, 3.604134)">
                            <mask id="mask-6" fill="white">
                                <use xlink:href="#path-5"></use>
                            </mask>
                            <use id="蒙版" fill="#FFE7D6" xlink:href="#path-5"></use>
                            <path d="M2.61072527,28.4424661 C4.13044911,29.7049661 6.36969744,31.8228982 8.38086687,31.8228982 C10.3920363,31.8228982 10.6798713,31.0256265 12.6215693,31.0256265 C14.5632674,31.0256265 14.7025832,31.8228982 16.7818678,31.8228982 C18.8611525,31.8228982 21.3395438,29.5975395 22.1310195,28.7593606 C22.2302884,28.6542341 22.3234695,28.6226114 22.3610304,28.6226114 C22.3610304,29.8074563 20.0724562,34.5500406 12.8015822,34.7445333 C9.91244908,34.8218164 7.43795637,33.5963962 5.73401628,32.1332315 C3.81690236,30.4870155 3.15090097,29.7117436 2.51569353,28.6226114 C2.29464992,28.2436081 2.27306446,28.1619567 2.61072527,28.4424661 Z" id="路径-2" fill="#4D2D19" mask="url(#mask-6)"></path>
                        </g>
                        <path d="M32.1436932,26.2496659 C32.4229272,24.7782844 31.8248463,22.860216 31.2660186,21.9853298 C31.0772276,21.6897635 30.427653,21.6845403 30.2431909,21.9718052 C29.6834554,22.8434879 29.0774535,24.7831003 29.3493444,26.2455369 C29.4115842,26.5803101 32.0886149,26.5398926 32.1436932,26.2496659 Z" id="椭圆形备份-7" stroke="none" fill="#FBD3B9" fill-rule="evenodd"></path>
                        <path d="M28.2089042,30.5689187 C28.9982546,31.0463702 29.9239069,31.321157 30.913739,31.321157 C31.8717301,31.321157 32.7696039,31.0637647 33.5419771,30.6143634" id="路径备份-5" stroke="#EE9585" stroke-width="1.2" fill="none" stroke-linecap="round"></path>
                        <path d="M18.6992187,24.1210614 C18.8603516,26.0479736 17.0114656,22.3165433 16.7509766,19.7525635 C16.4904876,17.1885836 15.8589192,9.89476623 18.1984178,6.18017578 C20.3397217,2.78027344 24.0988067,0.657470703 30.8754407,0.657470703 C36.9919959,0.657470703 41.2160645,2.01428223 43.4643555,5.96057129 C45.7126465,9.90686035 45.3283691,16.0980225 44.9875488,19.4152832 C44.6467285,22.7325439 42.5004883,26.3086548 42.68573,24.4569397 C42.8709717,22.6052246 43.1896174,17.8563232 42.68573,15.0612793 C42.1818425,12.2662354 40.7556828,11.0068323 39.2146637,10.9143066 C36.1278717,10.7289698 35.6282006,12.4467773 30.7484265,12.4467773 C25.8686523,12.4467773 24.5141229,10.4498291 21.9298096,11.2060547 C20.7589053,11.5486864 19.4375,13.1026611 19.0581055,15.78125 C18.6342652,18.7736334 18.5380859,22.1941492 18.6992187,24.1210614 Z" id="路径-19备份" stroke="none" fill="#4D2D19" fill-rule="evenodd"></path>
                    </g>
                </g>
            </g>
        </g>
    </g>
</svg>
