<?xml version="1.0" encoding="UTF-8"?>
<svg width="26px" height="31px" viewBox="0 0 26 31" version="1.1" xmlns="http://www.w3.org/2000/svg" xmlns:xlink="http://www.w3.org/1999/xlink">
    <!-- Generator: Sketch 63 (92445) - https://sketch.com -->
    <title>形状_1 2</title>
    <desc>Created with Sketch.</desc>
    <g id="页面-1" stroke="none" stroke-width="1" fill="none" fill-rule="evenodd">
        <g id="账户密码登录" transform="translate(-370.000000, -200.000000)" fill="#0076F7" fill-rule="nonzero">
            <g id="编组-2" transform="translate(370.000000, 200.000000)">
                <g id="形状_1-2">
                    <path d="M4.73156685,19.2334445 C4.13517111,20.2393611 3.55778905,21.1220747 3.06596855,22.0642156 C2.38154415,23.1894637 2.0617088,24.5524091 2.16155121,25.9182967 C2.32058706,27.042934 2.99370061,27.9843115 3.92602064,28.3859812 C4.63432103,28.7090781 5.39958755,28.8352584 6.15886036,28.7541409 C6.23648534,28.7709904 6.31623062,28.7409821 6.36993456,28.6747131 C6.42363851,28.6084441 6.44374387,28.51524 6.42315054,28.4280152 C6.41491126,28.1236312 6.42315054,27.8185225 6.42315054,27.5134138 C6.42315054,18.473934 6.4358263,0.180456222 6.45167101,0 C6.57842888,0.102910778 9.4228753,2.74163008 10.7525653,4.01859338 C10.8737779,4.17242503 10.9392632,4.37323041 10.9357304,4.58025432 C10.9465048,8.26692424 10.9433358,11.9543188 10.9433358,15.6409887 C10.9433358,19.5438679 10.9433358,23.4467471 10.9433358,27.3496262 C10.9433358,27.8569328 10.9737577,27.8569328 11.3869884,27.7177859 C11.5209489,27.6883283 11.6388776,27.598389 11.7141337,27.4682857 C11.7893898,27.3381824 11.8156238,27.178892 11.7869094,27.0263994 C11.7774026,19.8175719 11.7964163,5.23033155 11.8109934,5.08466208 C11.9130335,5.14191526 14.107212,7.14215289 15.118106,8.12342891 C15.2295525,8.27262782 15.2877144,8.46438479 15.2809898,8.66044921 C15.2904967,11.6608057 15.2879615,14.6611621 15.2873278,17.6615186 C15.2873278,20.1912878 15.2873278,22.7212986 15.2873278,25.2515508 C15.2873278,25.3464896 15.3019049,25.4414284 15.3158483,25.6139127 C15.5639806,25.4454625 15.7998754,25.2544872 16.0212558,25.0428304 C16.1032754,24.8979324 16.1395038,24.7253229 16.1239296,24.5536418 C16.1289999,20.6633245 16.1302675,16.7739736 16.1277324,12.8855889 C16.1277324,11.754295 16.1397744,9.3206726 16.1537178,9.16340754 C16.2766728,9.24457662 18.1305066,10.9266605 18.9518975,11.7354523 C19.0843071,11.8910074 19.1601845,12.0982051 19.1642169,12.3152313 C19.1724562,15.417049 19.1642169,18.5195916 19.1585128,21.6214094 C19.1585128,21.7533091 19.1680197,21.8852089 19.1756252,22.0729123 C19.2495409,22.0363324 19.319861,21.9909046 19.3854094,21.937389 C20.7194603,20.5035293 21.8049069,18.7946886 22.5847778,16.9005586 C23.1439558,15.6744174 23.4817053,14.3321753 23.5779257,12.9537129 C23.6533429,11.4401608 22.7740503,10.0803642 21.4864209,9.71927067 C20.7619998,9.47286461 18.5247235,9.29748142 18.5228222,9.26124522 C20.0227462,8.95890752 21.5441715,8.81817738 23.0670915,8.84090544 C23.6845875,8.90140757 24.282244,9.12012743 24.8157162,9.48083653 C25.608436,10.051646 26.0612612,11.0758106 25.9932967,12.1441964 C25.9246275,13.4780278 25.6229203,14.7826033 25.1059917,15.9808842 C24.1122101,18.6297496 22.4516821,20.6814427 20.6732693,22.635298 C19.0107289,24.4754686 17.1448783,26.0591306 15.1231763,27.3460026 C13.6878777,28.256582 12.1700785,28.9856086 10.5966531,29.5201739 C7.96414688,30.5499929 5.13231572,30.7179241 2.42077103,30.0050141 C1.87512489,29.8634977 1.36175682,29.5918413 0.914253848,29.207818 C0.0895503441,28.509712 -0.219531736,27.2633336 0.161945942,26.1741242 C0.663774705,24.5984784 1.43681335,23.1538929 2.43534818,21.9257934 C3.01716677,21.134395 4.5388949,19.4153502 4.73156685,19.2334445 Z" id="形状_1"></path>
                </g>
            </g>
        </g>
    </g>
</svg>