<?xml version="1.0" encoding="UTF-8"?>
<svg width="840px" height="600px" viewBox="0 0 840 600" version="1.1" xmlns="http://www.w3.org/2000/svg" xmlns:xlink="http://www.w3.org/1999/xlink">
    <title>编组 4</title>
    <defs>
        <rect id="path-1" x="0.5" y="0" width="800" height="560" rx="10"></rect>
        <filter x="-4.1%" y="-4.9%" width="108.1%" height="111.6%" filterUnits="objectBoundingBox" id="filter-3">
            <feOffset dx="0" dy="5" in="SourceAlpha" result="shadowOffsetOuter1"></feOffset>
            <feGaussianBlur stdDeviation="10" in="shadowOffsetOuter1" result="shadowBlurOuter1"></feGaussianBlur>
            <feColorMatrix values="0 0 0 0 0   0 0 0 0 0   0 0 0 0 0  0 0 0 0.05 0" type="matrix" in="shadowBlurOuter1" result="shadowMatrixOuter1"></feColorMatrix>
            <feOffset dx="2" dy="2" in="SourceAlpha" result="shadowOffsetOuter2"></feOffset>
            <feGaussianBlur stdDeviation="5" in="shadowOffsetOuter2" result="shadowBlurOuter2"></feGaussianBlur>
            <feColorMatrix values="0 0 0 0 0   0 0 0 0 0.4   0 0 0 0 1  0 0 0 0.101343969 0" type="matrix" in="shadowBlurOuter2" result="shadowMatrixOuter2"></feColorMatrix>
            <feMerge>
                <feMergeNode in="shadowMatrixOuter1"></feMergeNode>
                <feMergeNode in="shadowMatrixOuter2"></feMergeNode>
            </feMerge>
        </filter>
        <linearGradient x1="50%" y1="0%" x2="50%" y2="100%" id="linearGradient-4">
            <stop stop-color="#0066FF" offset="0%"></stop>
            <stop stop-color="#D8D8D8" stop-opacity="0" offset="100%"></stop>
        </linearGradient>
        <linearGradient x1="50%" y1="0%" x2="50%" y2="100%" id="linearGradient-5">
            <stop stop-color="#0066FF" offset="0%"></stop>
            <stop stop-color="#D8D8D8" stop-opacity="0" offset="100%"></stop>
        </linearGradient>
        <linearGradient x1="46.4540981%" y1="122.264865%" x2="71.8245628%" y2="45.4937897%" id="linearGradient-6">
            <stop stop-color="#ACC5E9" offset="0%"></stop>
            <stop stop-color="#D3E3FB" offset="62.7469178%"></stop>
            <stop stop-color="#EAF2FF" offset="100%"></stop>
        </linearGradient>
        <linearGradient x1="-0.0116387337%" y1="49.998368%" x2="100%" y2="49.998368%" id="linearGradient-7">
            <stop stop-color="#3158D3" offset="0%"></stop>
            <stop stop-color="#306EF3" offset="100%"></stop>
        </linearGradient>
        <linearGradient x1="-0.0116387337%" y1="49.998368%" x2="100%" y2="49.998368%" id="linearGradient-8">
            <stop stop-color="#3158D3" offset="0%"></stop>
            <stop stop-color="#306EF3" offset="100%"></stop>
        </linearGradient>
        <linearGradient x1="-0.0116387337%" y1="49.998368%" x2="100%" y2="49.998368%" id="linearGradient-9">
            <stop stop-color="#3158D3" offset="0%"></stop>
            <stop stop-color="#306EF3" offset="100%"></stop>
        </linearGradient>
        <linearGradient x1="49.0283141%" y1="122.264865%" x2="55.9805999%" y2="45.4937897%" id="linearGradient-10">
            <stop stop-color="#ACC5E9" offset="0%"></stop>
            <stop stop-color="#D3E3FB" offset="62.7469178%"></stop>
            <stop stop-color="#EAF2FF" offset="100%"></stop>
        </linearGradient>
        <linearGradient x1="48.394541%" y1="122.264865%" x2="59.8813904%" y2="45.4937897%" id="linearGradient-11">
            <stop stop-color="#ACC5E9" offset="0%"></stop>
            <stop stop-color="#D3E3FB" offset="62.7469178%"></stop>
            <stop stop-color="#EAF2FF" offset="100%"></stop>
        </linearGradient>
        <linearGradient x1="0.0105475798%" y1="50.0005873%" x2="100.005519%" y2="50.0005873%" id="linearGradient-12">
            <stop stop-color="#92A6F1" offset="0%"></stop>
            <stop stop-color="#FFFFFF" offset="100%"></stop>
        </linearGradient>
        <radialGradient cx="50.044274%" cy="130.909121%" fx="50.044274%" fy="130.909121%" r="87.3257298%" gradientTransform="translate(0.500443,1.309091),scale(0.579505,1.000000),translate(-0.500443,-1.309091)" id="radialGradient-13">
            <stop stop-color="#1067DB" offset="9%"></stop>
            <stop stop-color="#4F8FE5" offset="27%"></stop>
            <stop stop-color="#8DB7EE" offset="46%"></stop>
            <stop stop-color="#BED6F5" offset="64%"></stop>
            <stop stop-color="#E2ECFB" offset="79%"></stop>
            <stop stop-color="#F7FAFE" offset="92%"></stop>
            <stop stop-color="#FFFFFF" offset="100%"></stop>
        </radialGradient>
        <linearGradient x1="0%" y1="50.0910747%" x2="99.9208806%" y2="50.0910747%" id="linearGradient-14">
            <stop stop-color="#92A6F1" offset="23%"></stop>
            <stop stop-color="#D3DBF9" offset="68%"></stop>
            <stop stop-color="#FFFFFF" offset="100%"></stop>
        </linearGradient>
        <linearGradient x1="0%" y1="50.1142857%" x2="100%" y2="50.1142857%" id="linearGradient-15">
            <stop stop-color="#1067DB" offset="0%"></stop>
            <stop stop-color="#1CA2F9" offset="100%"></stop>
        </linearGradient>
        <linearGradient x1="-0.013125082%" y1="49.9593614%" x2="100%" y2="49.9593614%" id="linearGradient-16">
            <stop stop-color="#1067DB" offset="0%"></stop>
            <stop stop-color="#1CA2F9" offset="100%"></stop>
        </linearGradient>
        <linearGradient x1="82.0040351%" y1="99.5301572%" x2="23.7486347%" y2="8.87488706%" id="linearGradient-17">
            <stop stop-color="#0A3795" offset="19%"></stop>
            <stop stop-color="#0F61D2" offset="100%"></stop>
        </linearGradient>
        <linearGradient x1="99.9783221%" y1="49.9909481%" x2="-6.16122034e-14%" y2="49.9909481%" id="linearGradient-18">
            <stop stop-color="#92A6F1" offset="0%"></stop>
            <stop stop-color="#E1E9FC" offset="100%"></stop>
        </linearGradient>
        <linearGradient x1="9.95134862%" y1="14.7554662%" x2="98.5022463%" y2="89.0257854%" id="linearGradient-19">
            <stop stop-color="#A5CBEF" offset="3.80228%"></stop>
            <stop stop-color="#B0D1F1" offset="18.85%"></stop>
            <stop stop-color="#CEE3F6" offset="45.32%"></stop>
            <stop stop-color="#EAF3FB" offset="66.54%"></stop>
            <stop stop-color="#C0DBF4" offset="85.58%"></stop>
            <stop stop-color="#A5CBEF" offset="100%"></stop>
        </linearGradient>
        <linearGradient x1="91.5355578%" y1="40.955429%" x2="16.2827175%" y2="82.4723861%" id="linearGradient-20">
            <stop stop-color="#28C4FF" offset="0%"></stop>
            <stop stop-color="#34EDCB" offset="100%"></stop>
        </linearGradient>
        <linearGradient x1="-0.148148148%" y1="49.9304599%" x2="99.9601852%" y2="49.9304599%" id="linearGradient-21">
            <stop stop-color="#5D7DBE" offset="0%"></stop>
            <stop stop-color="#3C5185" offset="99.62%"></stop>
        </linearGradient>
        <linearGradient x1="0.0217391304%" y1="50.2305467%" x2="100.274704%" y2="50.2305467%" id="linearGradient-22">
            <stop stop-color="#F4F9FD" offset="0%"></stop>
            <stop stop-color="#E6F1FA" offset="20.91%"></stop>
            <stop stop-color="#B2D2F1" offset="85.11%"></stop>
            <stop stop-color="#A5CBEF" offset="99.62%"></stop>
        </linearGradient>
        <linearGradient x1="76.9150476%" y1="100.232743%" x2="23.0009365%" y2="-1.29365393%" id="linearGradient-23">
            <stop stop-color="#A8D9FB" offset="0%"></stop>
            <stop stop-color="#C4E5FC" offset="27.76%"></stop>
            <stop stop-color="#EFF8FE" offset="75.58%"></stop>
            <stop stop-color="#FFFFFF" offset="100%"></stop>
        </linearGradient>
        <linearGradient x1="75.1175079%" y1="34.9753118%" x2="29.6103832%" y2="103.942578%" id="linearGradient-24">
            <stop stop-color="#28C4FF" offset="0%"></stop>
            <stop stop-color="#34EDCB" offset="100%"></stop>
        </linearGradient>
        <linearGradient x1="-0.390082645%" y1="49.8581343%" x2="100.038843%" y2="49.8581343%" id="linearGradient-25">
            <stop stop-color="#3C5185" offset="0%"></stop>
            <stop stop-color="#41588E" offset="12.8%"></stop>
            <stop stop-color="#5573B1" offset="69.48%"></stop>
            <stop stop-color="#5D7DBE" offset="100%"></stop>
        </linearGradient>
        <linearGradient x1="0.351010101%" y1="50%" x2="99.9838384%" y2="50%" id="linearGradient-26">
            <stop stop-color="#3C5185" offset="0%"></stop>
            <stop stop-color="#445C95" offset="60.02%"></stop>
            <stop stop-color="#4A65A3" offset="100%"></stop>
        </linearGradient>
        <linearGradient x1="0.42020202%" y1="50%" x2="100.053535%" y2="50%" id="linearGradient-27">
            <stop stop-color="#4A65A3" offset="0%"></stop>
            <stop stop-color="#445C95" offset="39.98%"></stop>
            <stop stop-color="#3C5185" offset="100%"></stop>
        </linearGradient>
        <linearGradient x1="80.9184438%" y1="34.9753118%" x2="24.9013626%" y2="103.942578%" id="linearGradient-28">
            <stop stop-color="#28C4FF" offset="0%"></stop>
            <stop stop-color="#34EDCB" offset="100%"></stop>
        </linearGradient>
    </defs>
    <g id="页面-1" stroke="none" stroke-width="1" fill="none" fill-rule="evenodd">
        <g id="账户密码登录" transform="translate(-300.000000, -155.000000)">
            <g id="编组-4" transform="translate(319.500000, 170.000000)">
                <mask id="mask-2" fill="white">
                    <use xlink:href="#path-1"></use>
                </mask>
                <g id="蒙版">
                    <use fill="black" fill-opacity="1" filter="url(#filter-3)" xlink:href="#path-1"></use>
                    <use fill="#FFFFFF" fill-rule="evenodd" xlink:href="#path-1"></use>
                </g>
                <path d="M894.407387,-128.134162 C823.230744,-192.641245 765.847963,-182.603712 722.259046,-98.0215623 C710.123722,-80.2323804 692.961886,-67.5858852 670.773538,-60.0820768 C519.818864,-59.5775447 424.202287,-34.5445653 383.923809,15.0168612 C343.64533,64.5782877 346.935294,161.239334 393.793699,305 L1089.92353,283.517555 C1115.97553,210.406871 1127.52224,173.85153 1124.56364,173.85153 C1121.60505,173.85153 1111.75229,126.509602 1095.00536,31.8257461 L894.407387,-128.134162 Z" id="路径-2" fill="url(#linearGradient-4)" opacity="0.0926571801" mask="url(#mask-2)" transform="translate(740.506165, 67.500000) scale(1, -1) translate(-740.506165, -67.500000) "></path>
                <path d="M62.1172154,511.818724 C15.9647813,480.991129 -21.2434216,485.788013 -49.5073932,526.209377 C-57.3761931,534.710733 -68.5042889,540.754427 -82.8916807,544.340458 C-180.773869,544.581571 -242.77367,556.5447 -268.891084,580.229845 C-295.008497,603.91499 -292.875216,650.108795 -262.491239,718.811261 L188.893999,708.544913 C205.786665,673.605702 213.273791,656.136097 211.355376,656.136097 C209.436962,656.136097 203.048225,633.511639 192.189166,588.262722 L62.1172154,511.818724 Z" id="路径-2" fill="url(#linearGradient-5)" opacity="0.223539807" mask="url(#mask-2)" transform="translate(-37.675577, 605.311261) scale(1, -1) rotate(-21.000000) translate(37.675577, -605.311261) "></path>
                <g id="编组-10" mask="url(#mask-2)">
                    <g transform="translate(578.754684, 268.500000) scale(-1, 1) translate(-578.754684, -268.500000) translate(418.754684, 65.000000)">
                        <g id="XMLID_36_" transform="translate(0.426207, 185.384548)">
                            <path d="M6.00832039,181.148649 L1.86705386,188.87865 C1.52194832,189.581377 1.52194832,189.932742 1.86705386,190.635469 L5.66321484,195.554561 C6.35342595,196.257288 7.043637,196.960015 7.73384811,197.662743 L12.9104313,201.17638 C15.3261701,202.933198 18.7772255,203.284562 21.5380698,202.230471 L29.1303918,198.36547 L28.7852862,196.257288 C28.4401807,194.149106 26.0244419,192.743651 23.9538087,193.446378 L22.5733864,193.797742 L20.8478587,193.446378 C18.43212,193.095015 16.7065922,191.338196 16.7065922,188.87865 L16.7065922,187.473196 L6.00832039,181.148649 Z" id="XMLID_69_" fill="#5C629E" fill-rule="nonzero"></path>
                            <g id="XMLID_50_" transform="translate(0.000000, 34.531814)" fill="#F2B1B5" fill-rule="nonzero">
                                <path d="M21.5380698,71.0736385 C22.2282809,71.0736385 22.918492,70.7222749 23.2635975,70.3709112 C25.3342308,68.9654567 25.6793364,66.5059108 24.2989142,64.3977284 L11.1849035,44.7213609 C6.69853144,37.6940869 7.043637,28.2072668 12.5653257,21.8827202 L24.6440197,7.12544463 C26.0244419,5.36862608 26.0244419,2.55771645 24.2989142,1.15226164 C22.5733864,-0.253193182 19.8125421,-0.253193182 18.43212,1.50362534 L6.35342595,16.2609009 C-1.23889603,25.7477209 -2.27421266,39.0995417 4.62789821,49.2890891 L17.7419088,68.9654567 C18.43212,70.7222749 20.1576477,71.4250027 21.5380698,71.0736385 Z" id="XMLID_51_"></path>
                            </g>
                            <g id="XMLID_45_" transform="translate(4.542244, 33.334045)" fill="url(#linearGradient-6)" fill-rule="nonzero">
                                <path d="M5.60734289,25.1886707 C6.64265953,25.1886707 8.02308169,24.4859433 8.7132928,23.4318522 L20.7919868,8.67457662 C22.5175145,6.56639444 22.172409,3.40412108 20.1017757,1.64730256 C18.0311424,-0.10951596 14.9251926,0.241847744 13.1996648,2.35002997 L1.12097083,17.1073056 C-0.604556886,19.2154877 -0.259451343,22.3777611 1.81118192,24.1345797 C2.84649854,24.837307 4.22692072,25.1886707 5.60734289,25.1886707 Z" id="XMLID_47_"></path>
                            </g>
                            <path d="M32.5814472,206.446836 L30.510814,213.825473 C30.510814,215.582292 31.5461306,217.33911 32.9265527,218.041838 L33.9618694,218.744565 C38.1031359,221.204111 43.2797191,221.204111 47.7660911,219.095929 L60.534996,212.068655 C61.9154182,211.365927 61.9154182,208.906382 60.534996,208.203654 L60.534996,208.203654 C58.1192574,206.798199 55.3584131,204.690017 52.5975687,205.041381 C51.2171466,205.041381 50.1818299,205.392744 48.8014077,205.392744 L42.9346135,206.095471 L32.5814472,206.446836 Z" id="XMLID_488_" fill="#5C629E" fill-rule="nonzero"></path>
                            <g id="XMLID_486_" transform="translate(6.355915, 99.590951)" fill="url(#linearGradient-7)" fill-rule="nonzero">
                                <path d="M6.89962214,88.9363357 C10.005572,88.9363357 11.3859942,87.179517 12.4213108,84.0172437 L26.5706381,48.1781459 L21.7391605,7.41995615 C21.7391605,3.20359172 15.8723663,-0.31004532 12.0762053,0.0413183844 C8.97025535,0.0413183844 4.48388332,2.85222802 4.48388332,10.5822295 C4.48388332,15.852685 6.55451659,20.771777 10.3506776,24.285414 L11.0408886,52.745874 L0.342616801,79.0981518 C-0.692699829,82.9631529 1.37793343,87.179517 5.17409441,88.2336079 C5.51919995,88.9363357 6.20941103,88.9363357 6.89962214,88.9363357 Z" id="XMLID_487_"></path>
                            </g>
                            <g id="XMLID_484_" transform="translate(25.248576, 99.590951)" fill="url(#linearGradient-8)" fill-rule="nonzero">
                                <path d="M12.8545593,113.883159 C16.6507203,113.883159 19.7566701,110.720885 20.1017757,106.855884 L22.172409,58.3676933 L20.1017757,7.06859247 C20.1017757,2.85222802 16.6507203,-0.31004532 12.5094538,0.0413183844 C8.36818725,0.0413183844 0.0856542006,4.60904654 0.0856542006,8.82541096 L7.67797614,58.3676933 L6.98776509,105.801793 C6.98776509,110.018158 8.7132928,113.883159 12.8545593,113.883159 L12.8545593,113.883159 Z" id="XMLID_485_"></path>
                            </g>
                            <g id="XMLID_482_" transform="translate(11.444355, 55.613636)" fill="url(#linearGradient-9)" fill-rule="nonzero">
                                <path d="M2.84649854,29.6127216 L0.0856542006,51.748635 C0.0856542006,54.5595447 1.46607637,57.0190906 3.88181517,58.4245454 L21.8273034,68.6140931 C26.658781,71.4250027 32.5255753,67.9113653 32.5255753,62.289546 L32.5255753,17.314992 C32.5255753,14.5040824 38.3923695,16.6122646 35.9766307,15.2068098 L11.1290316,0.449534226 C5.95244844,-2.0100117 2.84649854,23.9909024 2.84649854,29.6127216 Z" id="XMLID_483_"></path>
                            </g>
                            <g id="XMLID_480_" transform="translate(10.839798, 32.227290)" fill="url(#linearGradient-10)" fill-rule="nonzero">
                                <path d="M1.03531663,13.997696 L2.4157388,35.430882 C2.07063326,39.9986101 2.07063326,44.5663383 1.72552772,49.1340664 C1.38042217,51.5936124 -1.05676579e-12,68.4590702 0.690211086,71.2699798 C1.03531663,73.0267986 14.4944328,77.9458899 14.8395384,78.2972542 C22.4318603,81.810891 30.0241823,82.8649819 35.8909765,80.0540723 L36.236082,57.918159 L37.6165042,41.7554287 C38.3067153,30.5117901 40.3773486,15.7545146 29.6790767,8.72724047 C29.3339712,8.37587679 28.6437601,8.02451304 28.2986546,8.02451304 L16.9101716,1.69996639 C14.1493273,-0.0568521378 10.6982718,-0.0568521378 8.28253302,1.69996639 L8.28253302,1.69996639 C3.45105543,3.4567849 0.690211086,8.72724047 1.03531663,13.997696 Z" id="XMLID_481_"></path>
                            </g>
                            <g id="XMLID_477_" transform="translate(25.248576, 16.963628)" fill="#F2B1B5" fill-rule="nonzero">
                                <g id="XMLID_478_">
                                    <path d="M4.22692072,23.6395387 C2.15628746,23.6395387 0.430759744,21.8827202 0.430759744,19.7745379 L0.430759744,4.31453497 C0.430759744,2.20635275 2.15628746,0.449534226 4.22692072,0.449534226 C6.29755398,0.449534226 8.02308169,2.20635275 8.02308169,4.31453497 L8.02308169,19.7745379 C8.02308169,21.5313565 6.29755398,23.6395387 4.22692072,23.6395387 Z" id="XMLID_479_"></path>
                                </g>
                            </g>
                            <g id="XMLID_475_" transform="translate(25.248576, 6.422717)" fill="#F2B1B5" fill-rule="nonzero">
                                <path d="M1.81118192,26.801812 L0.430759744,26.801812 L3.19160409,0.449534226 L22.172409,2.55771645 L21.1370924,10.6390816 C20.4468813,20.8286291 11.4741371,27.8559032 1.81118192,26.801812 Z" id="XMLID_476_"></path>
                            </g>
                            <path d="M41.5541914,13.8995255 C40.5188747,14.6022529 40.1737691,15.656344 40.8639803,17.0617988 C41.2090858,17.7645263 41.8992969,19.1699811 41.2090858,19.8727085 C40.5188747,20.5754359 39.8286637,19.8727085 38.793347,19.5213447 C37.0678193,19.1699811 37.7580304,21.2781633 37.4129248,22.3322544 C36.7227137,26.5486188 32.5814472,31.8190744 27.7499696,31.4677107 C24.9891253,31.4677107 23.2635975,27.9540737 22.918492,25.143164 C22.2282809,20.9267996 22.5733864,16.3590714 22.918492,12.142707 C23.2635975,9.33179736 23.6087031,6.52088775 24.9891253,4.41270549 C26.714653,2.30452327 29.1303918,0.899068454 31.8912361,0.547704748 C34.6520804,0.196341045 37.0678193,0.196341045 39.8286637,0.547704748 C42.589508,0.899068454 45.3503523,0.899068454 47.7660911,1.60179586 C49.4916188,2.30452327 51.5622521,4.06134179 51.5622521,5.81816031 C51.5622521,8.62906993 49.1465133,10.3858885 46.7307745,11.4399796 C46.0405634,12.4940707 43.2797191,12.8454344 41.5541914,13.8995255 Z" id="XMLID_474_" fill="#3C5185" fill-rule="nonzero"></path>
                            <path d="M37.7580304,51.4954418 C40.1737691,50.7927145 42.2444024,52.1981693 42.9346135,54.3063515 L48.4563022,73.2799912 L47.4209856,88.0372671 C45.0052468,86.631812 42.9346135,84.1722666 41.8992969,81.3613564 L34.997186,56.7658974 C34.306975,54.3063515 35.3422916,52.1981693 37.7580304,51.4954418 Z" id="XMLID_473_" fill="#A5CBEF" fill-rule="nonzero" opacity="0.3"></path>
                            <g id="XMLID_471_" transform="translate(33.964358, 46.281839)" fill="#F2B1B5" fill-rule="nonzero">
                                <path d="M18.6332106,38.2417916 C22.7744771,38.2417916 26.2255326,36.1336094 28.2961658,32.2686087 L37.6140155,14.3490598 C38.6493321,12.2408775 37.959121,9.78133159 35.8884878,8.37587679 C33.8178545,7.32178567 31.4021157,8.02451304 30.0216935,10.1326953 L20.7038439,28.0522442 C20.0136328,29.457699 18.9783162,29.457699 18.288105,29.457699 C17.9429995,29.457699 16.5625773,29.1063353 16.2174718,27.7008805 L8.2800443,3.4567849 C7.58983319,1.34860268 5.17409441,-0.0568521378 3.10346114,0.645875272 C1.03282789,1.34860268 -0.347594285,3.80814861 0.342616801,5.91633083 L8.2800443,30.1604264 C9.66046646,34.3767909 13.1115219,37.1877005 17.597894,37.5390642 C17.9429995,38.2417916 18.288105,38.2417916 18.6332106,38.2417916 Z" id="XMLID_472_"></path>
                            </g>
                            <g id="XMLID_469_" transform="translate(32.755244, 45.677282)" fill="url(#linearGradient-11)" fill-rule="nonzero">
                                <path d="M9.83426363,24.0890729 C10.1793691,24.0890729 10.8695802,24.0890729 11.2146858,23.7377092 C13.6304246,23.0349818 15.0108468,20.2240722 14.3206357,17.4131626 L9.83426363,3.70997808 C9.14405252,1.25043216 6.3832082,-0.15502266 3.62236383,0.547704748 C1.20662503,1.25043216 -0.173797142,4.06134179 0.516413944,6.87225143 L5.002786,20.5754359 C6.03810264,22.6836181 7.76363036,24.0890729 9.83426363,24.0890729 Z" id="XMLID_470_"></path>
                            </g>
                            <g id="XMLID_436_" transform="translate(59.154574, 48.528001)" fill="#F2B1B5" fill-rule="nonzero">
                                <path d="M1.72552772,19.1301713 C2.07063326,19.1301713 2.76084434,18.7788075 2.76084434,18.4274438 L10.6982718,1.91334973 C11.0433774,1.21062233 10.6982718,0.507894917 10.0080607,0.156531212 C9.31784969,-0.194832492 8.62763858,0.156531212 8.28253302,0.859258621 L0.345105543,17.3733527 C-1.56347157e-13,18.0760801 0.345105543,18.7788075 1.03531663,19.1301713 C1.38042217,18.7788075 1.72552772,19.1301713 1.72552772,19.1301713 Z" id="XMLID_442_"></path>
                            </g>
                            <g id="XMLID_339_" transform="translate(60.968244, 52.704555)" fill="#F2B1B5" fill-rule="nonzero">
                                <path d="M3.36291249,10.0345247 C3.70801803,9.68316105 4.05312357,9.33179736 3.70801803,8.98043367 L2.6727014,1.25043216 C2.6727014,0.547704748 1.98249032,0.196341045 1.29227923,0.196341045 C0.602068144,0.196341045 0.256962601,0.899068454 0.256962601,1.60179586 L1.29227923,9.33179736 C1.29227923,10.0345247 1.98249032,10.3858885 2.6727014,10.3858885 C3.01780694,10.3858885 3.36291249,10.3858885 3.36291249,10.0345247 Z" id="XMLID_43_"></path>
                            </g>
                        </g>
                        <g id="Platforms-5复制-2" transform="translate(180.125310, 295.884548)">
                            <path d="M40.1061839,4.5525092 L4.30319785,25.2769025 C1.64147299,26.8185879 0.0019576126,29.6665728 0.0019576126,32.7485416 C0.0019576126,35.8305103 1.64147299,38.6784952 4.30319785,40.2201806 L40.1061839,60.954098 C44.704829,63.6205875 50.3739949,63.6205875 54.9726401,60.954098 L90.7756261,40.2201806 C93.4373511,38.6784952 95.0768663,35.8305103 95.0768663,32.7485416 C95.0768663,29.6665728 93.4373511,26.8185879 90.7756261,25.2769025 L54.9726401,4.5525092 C50.3739949,1.88601964 44.704829,1.88601964 40.1061839,4.5525092 Z" id="路径" fill="#FFFFFF" fill-rule="nonzero" opacity="0"></path>
                            <path d="M40.1441813,4.70489444 L4.53118183,25.3149988 C1.87597819,26.8434725 0.238710322,29.6788322 0.238710322,32.7485416 C0.238710322,35.818251 1.87597819,38.6536106 4.53118183,40.1820843 L40.1441813,60.7921887 C44.7208904,63.4391697 50.3579334,63.4391697 54.934643,60.7921887 L90.5476423,40.1820843 C93.2028459,38.6536106 94.8401136,35.818251 94.8401136,32.7485416 C94.8401136,29.6788322 93.2028459,26.8434725 90.5476423,25.3149988 L54.934643,4.70489444 C50.3579334,2.0579136 44.7208904,2.0579136 40.1441813,4.70489444 Z" id="路径" fill="#F9FBFE" fill-rule="nonzero" opacity="0.02"></path>
                            <path d="M40.1916779,4.84775559 L4.7496665,25.3530951 C2.13598133,26.8925581 0.530795908,29.7045473 0.530795908,32.7437795 C0.530795908,35.7830118 2.13598133,38.595001 4.7496665,40.1344639 L40.1821786,60.6398037 C44.7308589,63.2773709 50.338466,63.2773709 54.8871461,60.6398037 L90.319658,40.1344639 C92.9333435,38.595001 94.5385286,35.7830118 94.5385286,32.7437795 C94.5385286,29.7045473 92.9333435,26.8925581 90.319658,25.3530951 L54.8966454,4.84775559 C50.3453431,2.22000299 44.7429802,2.22000299 40.1916779,4.84775559 Z" id="路径" fill="#F3F8FD" fill-rule="nonzero" opacity="0.05"></path>
                            <path d="M40.2296753,5.00014087 L4.99664917,25.4007155 C2.37909999,26.9169052 0.766812073,29.7176776 0.766812073,32.7485416 C0.766812073,35.7794056 2.37909999,38.580178 4.99664917,40.0963676 L40.2296753,60.4969423 C44.7558952,63.1169637 50.3324284,63.1169637 54.8586482,60.4969423 L90.0821749,40.0963676 C92.7048252,38.5840478 94.3215339,35.781904 94.3215339,32.7485416 C94.3215339,29.7151792 92.7048252,26.9130353 90.0821749,25.4007155 L54.8586482,5.00014087 C50.3324284,2.38011939 44.7558952,2.38011939 40.2296753,5.00014087 Z" id="路径" fill="#EEF4FC" fill-rule="nonzero" opacity="0.07"></path>
                            <path d="M40.2676726,5.15252611 L5.22463317,25.4388118 C2.61871808,26.9456721 1.01311167,29.7324438 1.01311167,32.7485416 C1.01311167,35.7646394 2.61871808,38.5514111 5.22463317,40.0582713 L40.2676726,60.3445568 C44.7684882,62.9453443 50.3103361,62.9453443 54.8111513,60.3445568 L89.8541911,40.0582713 C92.4601061,38.5514111 94.0657125,35.7646394 94.0657125,32.7485416 C94.0657125,29.7324438 92.4601061,26.9456721 89.8541911,25.4388118 L54.8111513,5.15252611 C50.312436,2.54388104 44.7663881,2.54388104 40.2676726,5.15252611 Z" id="路径" fill="#E8F0FB" fill-rule="nonzero" opacity="0.1"></path>
                            <path d="M40.3056699,5.30491135 L5.45261713,25.4769082 C2.87266447,26.9807516 1.2852904,29.7469575 1.2852904,32.7390175 C1.2852904,35.7310775 2.87266447,38.4972835 5.45261713,40.0011268 L40.3056699,60.1921718 C44.7819251,62.7832708 50.296899,62.7832708 54.7731542,60.1921718 L89.6262068,40.0011268 C92.2153983,38.4997385 93.8099156,35.7283348 93.8099156,32.7294934 C93.8099156,29.730652 92.2153983,26.9592483 89.6262068,25.45786 L54.7731542,5.30491135 C50.296899,2.7138122 44.7819251,2.7138122 40.3056699,5.30491135 Z" id="路径" fill="#E2ECFB" fill-rule="nonzero" opacity="0.12"></path>
                            <path d="M40.3436673,5.45729658 L5.6995998,25.5150045 C3.11275325,27.0045538 1.51771623,29.7671727 1.51771623,32.7580657 C1.51771623,35.7489586 3.11275325,38.5115775 5.6995998,40.0011268 L40.3436673,60.0016905 C44.795357,62.5831146 50.283467,62.5831146 54.7351566,60.0016905 L89.3887237,40.0011268 C91.966278,38.509065 93.5541109,35.751663 93.5541109,32.7675897 C93.5541109,29.7835165 91.966278,27.0261145 89.3887237,25.5340526 L54.7351566,5.45729658 C50.283467,2.87587246 44.795357,2.87587246 40.3436673,5.45729658 Z" id="路径" fill="#DCE9FA" fill-rule="nonzero" opacity="0.15"></path>
                            <path d="M40.3816646,5.60015778 L5.91808447,25.6007212 C3.35680001,27.0846989 1.77923933,29.8254954 1.77923933,32.7913999 C1.77923933,35.7573044 3.35680001,38.4981009 5.91808447,39.9820787 L40.3816646,59.9826421 C44.8114185,62.5445576 50.2674055,62.5445576 54.6971594,59.9826421 L89.1607394,39.9820787 C91.7220241,38.4981009 93.2995847,35.7573044 93.2995847,32.7913999 C93.2995847,29.8254954 91.7220241,27.0846989 89.1607394,25.6007212 L54.6971594,5.60015778 C50.2674055,3.03824249 44.8114185,3.03824249 40.3816646,5.60015778 Z" id="路径" fill="#D6E5F9" fill-rule="nonzero" opacity="0.17"></path>
                            <path d="M40.4291613,5.7144467 L6.14606847,25.6007212 C3.60060051,27.0740031 2.03249526,29.7969563 2.03249526,32.7437795 C2.03249526,35.6906027 3.60060051,38.413556 6.14606847,39.8868379 L40.4291613,59.7350162 C44.837817,62.2869852 50.269505,62.2869852 54.6781608,59.7350162 L88.9327556,39.896362 C91.4782236,38.4230801 93.0463289,35.7001268 93.0463289,32.7533036 C93.0463289,29.8064804 91.4782236,27.0835272 88.9327556,25.6102453 L54.6591622,5.7144467 C50.255337,3.16980286 44.8329863,3.16980286 40.4291613,5.7144467 Z" id="路径" fill="#D0E1F8" fill-rule="nonzero" opacity="0.2"></path>
                            <path d="M40.4671586,5.90492825 L6.38355176,25.6388175 C3.85017311,27.1053836 2.28956792,29.8155732 2.28956792,32.7485416 C2.28956792,35.68151 3.85017311,38.3916995 6.38355176,39.8582657 L40.4671586,59.5921548 C44.8434843,62.1254095 50.2353397,62.1254095 54.6116654,59.5921548 L88.7047718,39.8582657 C91.2381501,38.3916995 92.7987555,35.68151 92.7987555,32.7485416 C92.7987555,29.8155732 91.2381501,27.1053836 88.7047718,25.6388175 L54.6116654,5.90492825 C50.2353397,3.37167373 44.8434843,3.37167373 40.4671586,5.90492825 Z" id="路径" fill="#CBDEF7" fill-rule="nonzero" opacity="0.22"></path>
                            <path d="M40.5051559,6.05731349 L6.6495331,25.7150101 C4.14627462,27.1771666 2.60664769,29.8629567 2.60664769,32.7675897 C2.60664769,35.6722228 4.14627462,38.3580129 6.6495331,39.8201694 L40.5431533,59.4397698 C44.8975353,61.9535349 50.2572835,61.9535349 54.6116654,59.4397698 L88.5052854,39.8201694 C91.0270319,38.3629344 92.5809575,35.666745 92.5809575,32.7485416 C92.5809575,29.8303382 91.0270319,27.1341488 88.5052854,25.6769138 L54.5736682,6.05731349 C50.2219081,3.53373385 44.8569161,3.53373385 40.5051559,6.05731349 Z" id="路径" fill="#C5DAF6" fill-rule="nonzero" opacity="0.24"></path>
                            <path d="M40.5431533,6.20969872 L6.83951977,25.7150101 C4.33449994,27.1667759 2.79166638,29.8475964 2.79166638,32.7485416 C2.79166638,35.6494868 4.33449994,38.3303073 6.83951977,39.7820731 L40.5431533,59.2873843 C44.8729776,61.791455 50.2058466,61.791455 54.5356706,59.2873843 L88.2393044,39.7820731 C90.7443242,38.3303073 92.2871575,35.6494868 92.2871575,32.7485416 C92.2871575,29.8475964 90.7443242,27.1667759 88.2393044,25.7150101 L54.5356706,6.20969872 C50.2058466,3.70562807 44.8729776,3.70562807 40.5431533,6.20969872 Z" id="路径" fill="#BFD6F5" fill-rule="nonzero" opacity="0.27"></path>
                            <path d="M40.5811506,6.36208396 L7.07700311,25.7150101 C4.58315941,27.1548299 3.04618563,29.8204136 3.04618563,32.7056832 C3.04618563,35.5909529 4.58315941,38.2565365 7.07700311,39.6963564 L40.5811506,59.1349992 C44.8864121,61.6293883 50.1924118,61.6293883 54.4976734,59.1349992 L88.0113201,39.7344527 C90.5000717,38.2907726 92.0326349,35.6265571 92.0326349,32.7437795 C92.0326349,29.8610019 90.5000717,27.1967865 88.0113201,25.7531064 L54.4976734,6.36208396 C50.1924118,3.86769479 44.8864121,3.86769479 40.5811506,6.36208396 Z" id="路径" fill="#B9D3F4" fill-rule="nonzero" opacity="0.29"></path>
                            <path d="M40.6286473,6.50494515 L7.30498706,25.7912027 C4.82787334,27.2255572 3.30199564,29.8757707 3.30199564,32.7437795 C3.30199564,35.6117884 4.82787334,38.2620019 7.30498706,39.6963564 L40.6286473,58.9826141 C44.9058719,61.4676103 50.1824514,61.4676103 54.4596763,58.9826141 L87.773837,39.6963564 C90.2509509,38.2620019 91.7768285,35.6117884 91.7768285,32.7437795 C91.7768285,29.8757707 90.2509509,27.2255572 87.773837,25.7912027 L54.4596763,6.50494515 C50.1803411,4.02783395 44.9079825,4.02783395 40.6286473,6.50494515 Z" id="路径" fill="#B3CFF4" fill-rule="nonzero" opacity="0.32"></path>
                            <path d="M40.6666446,6.66685448 L7.53297107,25.8388231 C5.07212688,27.265093 3.55652072,29.8987012 3.55652072,32.7485416 C3.55652072,35.598382 5.07212688,38.2319901 7.53297107,39.6582601 L40.6666446,58.8397528 C44.9240361,61.2973753 50.1642873,61.2973753 54.4216787,58.8397528 L87.5458528,39.6582601 C90.0117956,38.2358566 91.5318188,35.6008783 91.5318188,32.7485416 C91.5318188,29.8962049 90.0117956,27.2612265 87.5458528,25.8388231 L54.4216787,6.66685448 C50.1642873,4.20923214 44.9240361,4.20923214 40.6666446,6.66685448 Z" id="路径" fill="#ADCBF3" fill-rule="nonzero" opacity="0.34"></path>
                            <path d="M40.7046419,6.80971563 L7.7704544,25.8578713 C5.32124569,27.2748133 3.81232261,29.8944202 3.81232261,32.7294934 C3.81232261,35.5645666 5.32124569,38.1841735 7.7704544,39.6011156 L40.7046419,58.649271 C44.9340124,61.0974603 50.1448118,61.0974603 54.3741822,58.649271 L87.3178689,39.6011156 C89.7670778,38.1841735 91.2760006,35.5645666 91.2760006,32.7294934 C91.2760006,29.8944202 89.7670778,27.2748133 87.3178689,25.8578713 L54.3741822,6.80971563 C50.1448118,4.36152675 44.9340124,4.36152675 40.7046419,6.80971563 Z" id="路径" fill="#A8C7F2" fill-rule="nonzero" opacity="0.37"></path>
                            <path d="M40.7426393,6.96210087 L7.99843841,25.9150157 C5.56595111,27.3264833 4.06811438,29.930723 4.06811438,32.7485416 C4.06811438,35.5663602 5.56595111,38.1705999 7.99843841,39.5820674 L40.7426393,58.5349823 C44.9474442,60.9734966 50.1313797,60.9734966 54.3361846,58.5349823 L87.0803858,39.5820674 C89.5179634,38.1744583 91.020209,35.568851 91.020209,32.7485416 C91.020209,29.9282322 89.5179634,27.3226248 87.0803858,25.9150157 L54.3361846,6.96210087 C50.1313797,4.52358664 44.9474442,4.52358664 40.7426393,6.96210087 Z" id="路径" fill="#A2C4F1" fill-rule="nonzero" opacity="0.39"></path>
                            <path d="M40.7806366,7.11448615 L8.22642236,25.953112 C5.80557348,27.3552548 4.31442317,29.9454923 4.31442317,32.7485416 C4.31442317,35.5515909 5.80557348,38.1418283 8.22642236,39.5439711 L40.7806366,58.3825972 C44.9635057,60.801602 50.1153183,60.801602 54.2981875,58.3825972 L86.8524016,39.5439711 C89.2732506,38.1418283 90.7644008,35.5515909 90.7644008,32.7485416 C90.7644008,29.9454923 89.2732506,27.3552548 86.8524016,25.953112 L54.2981875,7.11448615 C50.1179535,4.68563265 44.9608705,4.68563265 40.7806366,7.11448615 Z" id="路径" fill="#9CC0F0" fill-rule="nonzero" opacity="0.41"></path>
                            <path d="M40.8471319,7.2573473 L8.45440637,25.9912084 C6.04982665,27.3852662 4.5689475,29.9588984 4.5689475,32.7437795 C4.5689475,35.5286607 6.04982665,38.1022929 8.45440637,39.4963507 L40.8471319,58.2302117 C45.0054382,60.6395353 50.1303818,60.6395353 54.2886882,58.2302117 L86.6244177,39.4963507 C89.0289976,38.1022929 90.5098764,35.5286607 90.5098764,32.7437795 C90.5098764,29.9588984 89.0289976,27.3852662 86.6244177,25.9912084 L54.2601903,7.2573473 C50.1065331,4.86876114 45.0007888,4.86876114 40.8471319,7.2573473 Z" id="路径" fill="#96BCEF" fill-rule="nonzero" opacity="0.44"></path>
                            <path d="M40.8471319,7.40973253 L8.6918897,26.0388287 C6.29848765,27.4209422 4.82346995,29.9793371 4.82346995,32.7485416 C4.82346995,35.5177461 6.29848765,38.0761409 8.6918897,39.4582544 L40.8471319,58.0968745 C44.9800363,60.4869575 50.0702896,60.4869575 54.2031941,58.0968745 L86.3869342,39.4582544 C88.7803362,38.0761409 90.2553539,35.5177461 90.2553539,32.7485416 C90.2553539,29.9793371 88.7803362,27.4209422 86.3869342,26.0388287 L54.2221927,7.40973253 C50.0844603,5.01231811 44.9848644,5.01231811 40.8471319,7.40973253 Z" id="路径" fill="#90B9EE" fill-rule="nonzero" opacity="0.46"></path>
                            <path d="M40.9041279,7.56211777 L8.91987371,26.0769251 C6.54782853,27.4548089 5.08748721,29.995232 5.08748721,32.7437795 C5.08748721,35.4923271 6.54782853,38.0327502 8.91987371,39.410634 L40.9041279,57.9349653 C45.0188733,60.316803 50.0884487,60.316803 54.2031941,57.9349653 L86.1589503,39.4201581 C88.5309955,38.0422742 89.991337,35.5018512 89.991337,32.7533036 C89.991337,30.004756 88.5309955,27.464333 86.1589503,26.0864491 L54.146198,7.56211777 C50.0459617,5.20221227 45.0043643,5.20221227 40.9041279,7.56211777 Z" id="路径" fill="#8AB5ED" fill-rule="nonzero" opacity="0.49"></path>
                            <path d="M40.9421252,7.71450305 L9.14785766,26.1150214 C6.76215176,27.4665777 5.28692796,30.0011814 5.28692796,32.7485416 C5.28692796,35.4959018 6.76215176,38.0305055 9.14785766,39.3820618 L40.9421252,57.7825802 C45.0250648,60.1437408 50.0537593,60.1437408 54.1366987,57.7825802 L85.9309665,39.3820618 C88.3166723,38.0305055 89.7918959,35.4959018 89.7918959,32.7485416 C89.7918959,30.0011814 88.3166723,27.4665777 85.9309665,26.1150214 L54.146198,7.71450305 C50.0608438,5.34967847 45.0274796,5.34967847 40.9421252,7.71450305 Z" id="路径" fill="#85B1ED" fill-rule="nonzero" opacity="0.51"></path>
                            <path d="M40.9801226,7.86688829 L9.385341,26.1531177 C7.03702567,27.5149632 5.59087332,30.0286196 5.59087332,32.7485416 C5.59087332,35.4684635 7.03702567,37.9821199 9.385341,39.3439654 L40.9801226,57.6301947 C45.0384993,59.9816741 50.0403246,59.9816741 54.0987015,57.6301947 L85.693483,39.3439654 C88.0417984,37.9821199 89.4879508,35.4684635 89.4879508,32.7485416 C89.4879508,30.0286196 88.0417984,27.5149632 85.693483,26.1531177 L54.146198,7.86688829 C50.0757752,5.49701809 45.0505454,5.49701809 40.9801226,7.86688829 Z" id="路径" fill="#7FADEC" fill-rule="nonzero" opacity="0.54"></path>
                            <path d="M41.0181199,8.00974944 L9.613325,26.191214 C7.2761887,27.5411167 5.83589938,30.0395352 5.83589938,32.7437795 C5.83589938,35.4480239 7.2761887,37.9464424 9.613325,39.2963451 L41.0181199,57.4778097 C45.0540338,59.811749 50.0247904,59.811749 54.0607039,57.4778097 L85.493997,39.2963451 C87.8311333,37.9464424 89.2714227,35.4480239 89.2714227,32.7437795 C89.2714227,30.0395352 87.8311333,27.5411167 85.493997,26.191214 L54.0607039,8.00974944 C50.0247904,5.6758099 45.0540338,5.6758099 41.0181199,8.00974944 Z" id="路径" fill="#79AAEB" fill-rule="nonzero" opacity="0.56"></path>
                            <path d="M41.0561172,8.16213467 L9.841309,26.2578826 C7.52044545,27.5997042 6.09043143,30.0815161 6.09043143,32.7675897 C6.09043143,35.4536633 7.52044545,37.9354753 9.841309,39.2772969 L41.0561172,57.3730446 C45.0674683,59.6973028 50.0113556,59.6973028 54.0227068,57.3730446 L85.2375149,39.2772969 C87.5583788,37.9354753 88.9883928,35.4536633 88.9883928,32.7675897 C88.9883928,30.0815161 87.5583788,27.5997042 85.2375149,26.2578826 L54.0227068,8.16213467 C50.0087411,5.84767243 45.070083,5.84767243 41.0561172,8.16213467 Z" id="路径" fill="#73A6EA" fill-rule="nonzero" opacity="0.59"></path>
                            <path d="M41.1036139,8.31451996 L10.0787923,26.2769307 C7.76955779,27.6094175 6.34621947,30.0772305 6.34621947,32.7485416 C6.34621947,35.4198527 7.76955779,37.8876657 10.0787923,39.2201525 L41.1036139,57.144467 C45.0895631,59.449484 49.9987603,59.449484 53.9847096,57.144467 L85.009531,39.2201525 C87.313671,37.8838028 88.7325958,35.4173589 88.7325958,32.7485416 C88.7325958,30.0797243 87.313671,27.6132803 85.009531,26.2769307 L53.9847096,8.31451996 C49.9987603,6.0095027 45.0895631,6.0095027 41.1036139,8.31451996 Z" id="路径" fill="#6DA2E9" fill-rule="nonzero" opacity="0.61"></path>
                            <path d="M41.1416112,8.46690519 L10.3067763,26.315027 C8.01427357,27.6420504 6.6020334,30.0944926 6.6020334,32.7485416 C6.6020334,35.4025906 8.01427357,37.8550328 10.3067763,39.1820562 L41.1416112,57.0301778 C45.0995313,59.3257824 49.9792929,59.3257824 53.9372127,57.0301778 L84.7720479,39.1820562 C87.0645507,37.8550328 88.4767907,35.4025906 88.4767907,32.7485416 C88.4767907,30.0944926 87.0645507,27.6420504 84.7720479,26.315027 L53.9372127,8.46690519 C49.9792929,6.17130078 45.0995313,6.17130078 41.1416112,8.46690519 Z" id="路径" fill="#679FE8" fill-rule="nonzero" opacity="0.63"></path>
                            <path d="M41.1796086,8.61929043 L10.5347603,26.3531233 C8.25897627,27.6746693 6.85781936,30.1117453 6.85781936,32.7485416 C6.85781936,35.3853378 8.25897627,37.8224139 10.5347603,39.1439599 L41.1796086,56.8777927 C45.115593,59.1538878 49.963231,59.1538878 53.8992156,56.8777927 L84.5440637,39.1439599 C86.8249342,37.826268 88.2304953,35.3878258 88.2304953,32.7485416 C88.2304953,30.1092574 86.8249342,27.6708152 84.5440637,26.3531233 L53.8992156,8.61929043 C49.963231,6.34319549 45.115593,6.34319549 41.1796086,8.61929043 Z" id="路径" fill="#629BE7" fill-rule="nonzero" opacity="0.66"></path>
                            <path d="M41.2176059,8.77167567 L10.8197403,26.3912196 C8.55514213,27.7008301 7.15985604,30.1226658 7.15985604,32.7437795 C7.15985604,35.3648932 8.55514213,37.786729 10.8197403,39.0963395 L41.2176059,56.7254077 C45.1290274,58.9918211 49.9497967,58.9918211 53.861218,56.7254077 L84.3160798,39.0963395 C86.575598,37.7828821 87.9664879,35.3624101 87.9664879,32.7437795 C87.9664879,30.125149 86.575598,27.704677 84.3160798,26.3912196 L53.861218,8.77167567 C49.9497967,6.50526222 45.1290274,6.50526222 41.2176059,8.77167567 Z" id="路径" fill="#5C97E6" fill-rule="nonzero" opacity="0.68"></path>
                            <path d="M41.2556032,8.91453682 L11.0002276,26.4293159 C8.75235206,27.7334532 7.36815366,30.1399213 7.36815366,32.7437795 C7.36815366,35.3476378 8.75235206,37.7541059 11.0002276,39.0582431 L41.2556032,56.5730222 C45.142456,58.8297688 49.9363678,58.8297688 53.8232208,56.5730222 L84.0785963,39.0487191 C86.3315649,37.7484428 87.7201749,35.3406062 87.7201749,32.7342554 C87.7201749,30.1279047 86.3315649,27.7200681 84.0785963,26.4197919 L53.8232208,8.91453682 C49.9337393,6.66762184 45.1450848,6.66762184 41.2556032,8.91453682 Z" id="路径" fill="#5693E6" fill-rule="nonzero" opacity="0.71"></path>
                            <path d="M41.3030999,9.0669221 L11.2282116,26.4769363 C8.9915168,27.7691326 7.61318344,30.1603623 7.61318344,32.7485416 C7.61318344,35.3367209 8.9915168,37.7279506 11.2282116,39.0201468 L41.3030999,56.4301613 C45.1671709,58.6578575 49.9211526,58.6578575 53.7852237,56.4301613 L83.8506125,39.0487191 C86.0873074,37.7565228 87.4656406,35.3652931 87.4656406,32.7771138 C87.4656406,30.1889345 86.0873074,27.7977048 83.8506125,26.5055085 L53.7852237,9.0669221 C49.9237666,6.82943088 45.1645566,6.82943088 41.3030999,9.0669221 Z" id="路径" fill="#5090E5" fill-rule="nonzero" opacity="0.73"></path>
                            <path d="M41.3410972,9.21930734 L11.4656949,26.5150326 C9.24572672,27.8017599 7.87848557,30.1776206 7.87848557,32.7485416 C7.87848557,35.3194625 9.24572672,37.6953232 11.4656949,38.9820505 L41.3410972,56.2777758 C45.1650561,58.4777625 49.8662713,58.4777625 53.6902303,56.2777758 L83.5941303,38.9820505 C85.8140986,37.6953232 87.1813399,35.3194625 87.1813399,32.7485416 C87.1813399,30.1776206 85.8140986,27.8017599 83.5941303,26.5150326 L53.7377268,9.21930734 C49.9016721,7.00105695 45.1771521,7.00105695 41.3410972,9.21930734 Z" id="路径" fill="#4A8CE4" fill-rule="nonzero" opacity="0.76"></path>
                            <path d="M41.3790946,9.37169257 L11.6936789,26.5150326 C9.48997889,27.7936739 8.1330077,30.1529297 8.1330077,32.7056832 C8.1330077,35.2584368 9.48997889,37.6176926 11.6936789,38.8963338 L41.3790946,56.039674 C45.1999296,58.2513803 49.9073925,58.2513803 53.7282275,56.039674 L83.4136429,38.8963338 C85.6173434,37.6176926 86.9743142,35.2584368 86.9743142,32.7056832 C86.9743142,30.1529297 85.6173434,27.7936739 83.4136429,26.5150326 L53.7282275,9.37169257 C49.9073925,7.15998615 45.1999296,7.15998615 41.3790946,9.37169257 Z" id="路径" fill="#4488E3" fill-rule="nonzero" opacity="0.78"></path>
                            <path d="M41.4170919,9.52407781 L11.9691596,26.5912253 C9.77709753,27.8605413 8.42681236,30.205795 8.42681236,32.7437795 C8.42681236,35.2817641 9.77709753,37.6270178 11.9691596,38.8963338 L41.4170919,55.9730052 C45.2061211,58.1640348 49.8727031,58.1640348 53.661732,55.9730052 L83.1571612,38.9058579 C85.3487728,37.6339332 86.6982447,35.2874408 86.6982447,32.7485416 C86.6982447,30.2096423 85.3487728,27.8631499 83.1571612,26.5912253 L53.661732,9.52407781 C49.8753393,7.32319732 45.2034847,7.32319732 41.4170919,9.52407781 Z" id="路径" fill="#3F85E2" fill-rule="nonzero" opacity="0.8"></path>
                            <path d="M41.4550892,9.666939 L12.1496469,26.6674179 C9.96921771,27.9274032 8.62561259,30.2586566 8.62561259,32.7818758 C8.62561259,35.3050951 9.96921771,37.6363485 12.1496469,38.8963338 L41.4550892,55.8206202 C45.2195555,58.0019681 49.8592683,58.0019681 53.6237349,55.8206202 L82.929177,38.8582375 C85.0911312,37.5933443 86.4204523,35.2724857 86.4204523,32.7628277 C86.4204523,30.2531697 85.0911312,27.9323111 82.929177,26.6674179 L53.6237349,9.666939 C49.8566548,7.49538511 45.2221695,7.49538511 41.4550892,9.666939 Z" id="路径" fill="#3981E1" fill-rule="nonzero" opacity="0.83"></path>
                            <path d="M41.4930866,9.81932424 L12.3491329,26.6674179 C10.1849758,27.9193214 8.85164519,30.2339685 8.85164519,32.7390175 C8.85164519,35.2440665 10.1849758,37.5587136 12.3491329,38.8106171 L41.4930866,55.6682347 C45.2329839,57.8399168 49.8458403,57.8399168 53.5857377,55.6682347 L82.6916939,38.8201412 C84.8558508,37.5682377 86.1891815,35.2535906 86.1891815,32.7485416 C86.1891815,30.2434926 84.8558508,27.9288455 82.6916939,26.676942 L53.5857377,9.81932424 C49.8432114,7.6574746 45.2356128,7.6574746 41.4930866,9.81932424 Z" id="路径" fill="#337DE0" fill-rule="nonzero" opacity="0.85"></path>
                            <path d="M41.5405832,9.97170948 L12.6151142,26.7150383 C10.4625874,27.9576083 9.13593386,30.258256 9.13593386,32.7485416 C9.13593386,35.2388272 10.4625874,37.5394749 12.6151142,38.7820449 L41.5405832,55.5253738 C45.2576986,57.6680054 49.8306247,57.6680054 53.5477401,55.5253738 L82.46371,38.7820449 C84.6162365,37.5394749 85.9428902,35.2388272 85.9428902,32.7485416 C85.9428902,30.258256 84.6162365,27.9576083 82.46371,26.7150383 L53.5477401,9.97170948 C49.8332387,7.81928387 45.2550847,7.81928387 41.5405832,9.97170948 Z" id="路径" fill="#2D7ADF" fill-rule="nonzero" opacity="0.88"></path>
                            <path d="M41.5785806,10.1240947 L12.8430982,26.7531346 C10.707301,27.9902389 9.39174318,30.2755165 9.39174318,32.7485416 C9.39174318,35.2215666 10.707301,37.5068443 12.8430982,38.7439486 L41.5785806,55.3729883 C45.2676803,57.5061731 49.8111437,57.5061731 53.5002437,55.3729883 L82.2357258,38.7439486 C84.3715228,37.5068443 85.687081,35.2215666 85.687081,32.7485416 C85.687081,30.2755165 84.3715228,27.9902389 82.2357258,26.7531346 L53.5002437,10.1240947 C49.8111437,7.99090994 45.2676803,7.99090994 41.5785806,10.1240947 Z" id="路径" fill="#2776DF" fill-rule="nonzero" opacity="0.9"></path>
                            <path d="M41.6165779,10.27648 L13.1185789,26.7912309 C10.9944152,28.0190052 9.68553824,30.2902823 9.68553824,32.7485416 C9.68553824,35.2068008 10.9944152,37.478078 13.1185789,38.7058522 L41.6165779,55.2396511 C45.2811147,57.3631548 49.7977094,57.3631548 53.462246,55.2396511 L81.9602451,38.7249004 C84.084409,37.4971261 85.393286,35.225849 85.393286,32.7675897 C85.393286,30.3093305 84.084409,28.0380533 81.9602451,26.8102791 L53.462246,10.2955281 C49.8011072,8.16612895 45.2845107,8.15886613 41.6165779,10.27648 Z" id="路径" fill="#2172DE" fill-rule="nonzero" opacity="0.93"></path>
                            <path d="M41.6545752,10.4764856 L13.2990662,26.8293272 C11.1911743,28.0490194 9.89257145,30.3036903 9.89257145,32.7437795 C9.89257145,35.1838688 11.1911743,37.4385397 13.2990662,38.6582319 L41.6545752,55.0682182 C45.2945431,57.1820555 49.784281,57.1820555 53.4242489,55.0682182 L81.7702584,38.6582319 C83.8781504,37.4385397 85.1767534,35.1838688 85.1767534,32.7437795 C85.1767534,30.3036903 83.8781504,28.0490194 81.7702584,26.8293272 L53.4242489,10.4764856 C49.784281,8.3626479 45.2945431,8.3626479 41.6545752,10.4764856 Z" id="路径" fill="#1C6EDD" fill-rule="nonzero" opacity="0.95"></path>
                            <path d="M41.6925726,10.5717264 L13.5365495,26.8769476 C11.444928,28.0885561 10.1565976,30.3266213 10.1565976,32.7485416 C10.1565976,35.1704618 11.444928,37.4085271 13.5365495,38.6201356 L41.6925726,54.9158327 C45.3106095,57.0101487 49.7682145,57.0101487 53.3862513,54.9158327 L81.5422746,38.6201356 C83.6338961,37.4085271 84.9222263,35.1704618 84.9222263,32.7485416 C84.9222263,30.3266213 83.6338961,28.0885561 81.5422746,26.8769476 L53.3862513,10.5717264 C49.7661269,8.48523692 45.3126972,8.48523692 41.6925726,10.5717264 Z" id="路径" fill="#166BDC" fill-rule="nonzero" opacity="0.98"></path>
                            <path d="M41.7400692,10.7241116 L13.7740329,26.9150439 C11.694045,28.1173226 10.4123957,30.3413872 10.4123957,32.7485416 C10.4123957,35.1556959 11.694045,37.3797606 13.7740329,38.5820393 L41.7400692,54.7729713 C45.3321782,56.8500131 49.7561451,56.8500131 53.3482541,54.7729713 L81.3142907,38.5820393 C83.3891969,37.375912 84.6664479,35.1532116 84.6664479,32.7485416 C84.6664479,30.3438715 83.3891969,28.1211712 81.3142907,26.9150439 L53.3482541,10.7241116 C49.7561451,8.64707008 45.3321782,8.64707008 41.7400692,10.7241116 Z" id="路径" fill="#1067DB" fill-rule="nonzero"></path>
                            <path d="M40.7901359,1.90481556 L6.55453977,21.7244215 C4.00907183,23.1977034 2.44096658,25.9206567 2.44096658,28.8674799 C2.44096658,31.8143031 4.00907183,34.5372563 6.55453977,36.0105382 L40.7521386,55.8301443 C45.1607944,58.382113 50.5924821,58.382113 55.001138,55.8301443 L89.1987371,36.0105382 C91.7442051,34.5372563 93.3123099,31.8143031 93.3123099,28.8674799 C93.3123099,25.9206567 91.7442051,23.1977034 89.1987371,21.7244215 L55.001138,1.90481556 C50.6021489,-0.632516164 45.1891252,-0.632516164 40.7901359,1.90481556 Z" id="路径" fill="#F3F8FE" fill-rule="nonzero"></path>
                            <path d="M89.2367342,31.9723292 L55.0391356,51.7919354 C50.6304797,54.343904 45.1987917,54.343904 40.7901359,51.7919354 L6.55453977,31.9723292 C4.61829302,30.8695489 3.22004949,29.0164419 2.68831124,26.8483754 C1.77454588,30.4266898 3.35677593,34.1762481 6.55453977,36.0105382 L40.7521386,55.8301443 C45.1607944,58.382113 50.5924821,58.382113 55.001138,55.8301443 L89.1987371,36.0105382 C92.4048355,34.1826016 93.9987002,30.4331088 93.0934633,26.8483754 C92.5639678,29.0147574 91.1693723,30.8675823 89.2367342,31.9723292 Z" id="路径" fill="url(#linearGradient-12)" fill-rule="nonzero"></path>
                            <path d="M31.5567842,22.6292089 C39.9256966,17.7814533 53.6142356,17.7814533 61.95465,22.6292089 C70.2950644,27.4769645 70.3235622,35.4009972 61.95465,40.2392288 C53.5857377,45.0774603 39.8971986,45.0869844 31.5567842,40.2392288 C23.2163699,35.3914732 23.1878719,27.4674404 31.5567842,22.6292089 Z" id="路径" fill="url(#radialGradient-13)" fill-rule="nonzero" opacity="0.44" style="mix-blend-mode: multiply;"></path>
                            <path d="M65.3839089,13.1051311 L63.360551,13.1051311 C62.4192453,12.0754892 61.3191544,11.2040568 60.1022797,10.524106 C53.0632741,6.44780067 41.5310839,6.44780067 34.4540808,10.524106 C33.2405071,11.2090034 32.1411515,12.0798531 31.1958096,13.1051311 L29.2009497,13.1051311 L29.2009497,17.86717 L29.2009497,17.86717 C29.2009497,20.5720081 30.9488269,23.2768462 34.4825788,25.3245229 C41.5310839,29.4008282 53.0632741,29.4008282 60.130778,25.3245229 C63.6740293,23.2768462 65.4314057,20.562484 65.4125596,17.86717 L65.4125596,17.86717 L65.3839089,13.1051311 Z" id="路径" fill="url(#linearGradient-14)" fill-rule="nonzero"></path>
                            <path d="M34.4825788,10.524106 C33.2690051,11.2090034 32.1696495,12.0798531 31.2243076,13.1051311 L29.2009497,13.1051311 L29.2009497,17.86717 L29.2009497,17.86717 C29.2009497,20.5720081 30.9488269,23.2768462 34.4825788,25.3245229 L34.8150555,25.5054804 L34.8150555,20.6958211 L38.2918113,8.8383442 C36.9692611,9.27172657 35.6931849,9.83644934 34.4825788,10.524106 Z" id="路径" fill="url(#linearGradient-15)" fill-rule="nonzero"></path>
                            <path d="M34.4825788,5.7144467 C41.5310839,1.63814138 53.0632741,1.63814138 60.130778,5.7144467 C67.1982815,9.79075202 67.1792829,16.4671305 60.130778,20.5434359 C53.0822727,24.6197412 41.5595819,24.6197412 34.4825788,20.5434359 C27.4055757,16.4671305 27.443573,9.76217975 34.4825788,5.7144467 Z" id="路径" fill="#E9EDFC" fill-rule="nonzero"></path>
                            <path d="M47.297179,2.62864548 C42.8333564,2.54737595 38.4226805,3.60948236 34.4825788,5.7144467 C27.443573,9.79075202 27.443573,16.4671305 34.4825788,20.5434359 L34.8150555,20.7243933 L47.297179,14.7718447 L47.297179,2.62864548 Z" id="路径" fill="url(#linearGradient-16)" fill-rule="nonzero"></path>
                            <path d="M29.4479323,14.7432724 L47.3066783,14.7432724 L47.3066783,2.62864548 C42.8396522,2.54574925 38.4255049,3.60790419 34.4825788,5.7144467 C30.2458763,8.14308654 28.5739937,11.5431823 29.4479323,14.7432724 Z" id="路径" fill="#05105D" fill-rule="nonzero"></path>
                        </g>
                        <g id="编组-38" transform="translate(100.926862, 180.457155)">
                            <path d="M-4.71385693e-14,0.652912548 C-4.71385693e-14,0.0724942912 0.412505973,-0.17090702 0.9187633,0.128663861 L85.5762387,48.921243 C86.1091805,49.2843777 86.4473831,49.8702075 86.4950017,50.5127126 L86.4950017,102.787801 C86.4950017,103.368219 86.0637455,103.61162 85.5762387,103.312049 L0.9187633,54.5194708 C0.379426496,54.1622936 0.0392508646,53.5730462 -4.71385693e-14,52.9280012 L-4.71385693e-14,0.652912548 Z" id="路径" fill="#FFFFFF" fill-rule="nonzero"></path>
                            <path d="M64.8423121,59.3992253 C63.7020647,57.3803199 62.3289771,55.5006153 60.7508834,53.7982168 C60.0143851,53.0165308 59.2242292,52.2866458 58.3861125,51.6138236 C57.6226989,50.9852574 56.8064171,50.4230902 55.9462698,49.9335212 C55.2191764,49.511494 54.4522836,49.1613154 53.6565711,48.8879997 L55.8899657,42.3161496 C57.1146513,42.7310507 58.2962518,43.2624955 59.4183538,43.9031022 C61.7955481,45.2972121 63.9522172,47.0336717 65.8182492,49.0560298 C66.7945839,50.0796088 67.703589,51.1647196 68.5396121,52.3046149 C69.3884899,53.4483794 70.1717387,54.6389346 70.885615,55.8705898 C71.579006,57.0803827 72.2055373,58.3269032 72.7624171,59.6045958 L72.1993761,59.8473057 L66.3812897,62.3864296 C65.9236248,61.3634344 65.4098591,60.3661997 64.8423121,59.3992253 L64.8423121,59.3992253 Z M64.0352869,85.5375129 C64.8238904,85.5426283 65.6106724,85.4612304 66.3812897,85.2945537 C67.5037486,85.0739298 68.5818106,84.6701903 69.5718534,84.0996721 C70.5573476,83.5281829 71.4444315,82.8033114 72.1993761,81.9526188 C72.9665404,81.093396 73.5992373,80.12413 74.0761787,79.0774347 C74.5819579,77.9934607 74.9537743,76.8524892 75.1834917,75.6794894 C75.4271437,74.411678 75.5527957,73.1242223 75.5588522,71.8334637 C75.5551959,70.4761906 75.4422265,69.1213905 75.2210278,67.782068 L68.3331641,68.8835994 C68.4951647,69.8523546 68.5767677,70.8327262 68.5771482,71.8147938 C68.5835526,72.6478197 68.5081221,73.4794751 68.3519321,74.2979073 C68.2314183,74.9428788 68.0296349,75.5701603 67.7513555,76.1649102 C67.550845,76.6119226 67.2852424,77.0271189 66.9630983,77.3971323 C66.7075537,77.6900007 66.4027162,77.9363879 66.0622334,78.125263 C65.7224514,78.330379 65.3467492,78.4697401 64.9549199,78.536004 C64.4756091,78.603672 63.9890937,78.603672 63.5097824,78.536004 C62.8702718,78.4720464 62.2404271,78.3342041 61.6329803,78.125263 C60.8419288,77.855236 60.0809371,77.5048806 59.3620496,77.0797415 C58.506044,76.5836672 57.6902835,76.0218592 56.922207,75.3994391 C56.094388,74.7149194 55.3108293,73.9791021 54.5762041,73.1963759 C53.7912465,72.3756844 53.0638403,71.502364 52.3991137,70.5825718 C51.724333,69.6375432 51.0979352,68.6592338 50.5223116,67.6513778 C49.940503,66.6245258 49.3962305,65.5790043 48.9270297,64.5334829 C48.4753323,63.4912742 48.0806275,62.4255261 47.7446445,61.3409081 C47.4338046,60.3119483 47.1893233,59.2642959 47.0126915,58.2043437 C46.8506909,57.2355885 46.7690874,56.2552168 46.7687074,55.2731492 C46.762303,54.4401234 46.8377335,53.6084679 46.9939235,52.7900353 C47.1047974,52.145032 47.3004086,51.5173226 47.5757321,50.9230328 C47.7807519,50.48417 48.0460374,50.0757529 48.3639892,49.7094807 C48.6195339,49.4166122 48.9243713,49.1702251 49.2648542,48.9813499 C49.5979266,48.7763818 49.9674657,48.636944 50.3533996,48.570609 L50.3533996,41.7747189 L49.9780391,41.7747189 C49.1296968,41.7641587 48.2856928,41.8967268 47.4818923,42.1667894 C46.8765647,42.3805777 46.2922938,42.649314 45.7364662,42.969601 C44.7516028,43.5343702 43.8644378,44.2530041 43.1089432,45.0979839 C42.3455151,45.9669096 41.7132874,46.9417459 41.232141,47.9918383 C40.7263618,49.0758124 40.3545451,50.2167838 40.1248278,51.3897831 C39.8792304,52.6570241 39.7597888,53.9452597 39.7682354,55.2358089 C39.7718915,56.5930825 39.8848611,57.9478825 40.1060598,59.2872051 C40.3266605,60.6510427 40.6401833,61.9983893 41.0444608,63.3199313 C41.4610256,64.666794 41.9560883,65.9883801 42.5271345,67.2779772 C43.0876911,68.5539601 43.7141263,69.8002892 44.4039367,71.0119827 C45.1358895,72.2442042 45.9241466,73.4577563 46.7499393,74.5779581 C47.5916275,75.713445 48.5003478,76.7982156 49.4713022,77.8265427 C50.41436,78.8444817 51.4305073,79.7929255 52.511722,80.6643869 C53.560063,81.5252862 54.6773476,82.2995557 55.8524296,82.9794703 C56.9741871,83.6257876 58.1557383,84.1634624 59.3808177,84.5850929 C60.5225023,84.9741838 61.7071801,85.2249267 62.9092058,85.3318941 C63.2805598,85.420544 63.6564714,85.4891015 64.0352869,85.5375129 L64.0352869,85.5375129 Z" id="形状" fill="url(#linearGradient-17)" fill-rule="nonzero"></path>
                            <path d="M85.5762387,48.9207203 L0.9187633,0.119029634 C0.412505973,-0.180597164 -4.71385693e-14,0.119029634 -4.71385693e-14,0.643376411 L-4.71385693e-14,1.13026954 L84.2449691,49.7072403 C84.7843063,50.0644838 85.1244815,50.6538416 85.1637326,51.2990069 L85.1637326,103.096964 L85.5762387,103.321684 C86.0637455,103.62131 86.4950017,103.321684 86.4950017,102.797337 L86.4950017,50.512487 C86.4473831,49.8698621 86.1091805,49.2839228 85.5762387,48.9207203 L85.5762387,48.9207203 Z" id="路径" fill="url(#linearGradient-18)" fill-rule="nonzero"></path>
                            <polygon id="路径" fill="#D3DBF9" fill-rule="nonzero" points="23.8606901 26.1374516 23.8606901 29.8386673 4.97097711 18.7540988 4.97097711 14.9193336"></polygon>
                            <polygon id="路径" fill="#D3DBF9" fill-rule="nonzero" points="36.7852306 45.0674771 36.7852306 48.7364901 4.97097711 30.6562005 4.97097711 26.8548005"></polygon>
                            <polygon id="路径" fill="#D3DBF9" fill-rule="nonzero" points="36.7852306 55.0136999 36.7852306 58.6827124 4.97097711 40.6024228 4.97097711 36.8010232"></polygon>
                            <polygon id="路径" fill="#D3DBF9" fill-rule="nonzero" points="36.7852306 63.9842125 36.7852306 67.6343129 4.97097711 49.5729354 4.97097711 45.7526232"></polygon>
                        </g>
                        <g id="XMLID_122_复制-2" transform="translate(69.247483, 0.000000)">
                            <path d="M16.7136036,144.849068 L232.59765,276.60457 L245.411413,269.09951 C247.918454,267.709683 249.311254,264.930032 249.311254,262.15038 L249.311254,139.56773 C249.311254,134.008426 246.247093,129.005052 241.511572,126.2254 L25.0704054,1.14106334 C22.5633649,-0.248762624 19.2206442,-0.248762624 16.7136036,1.14106334 L4.1784009,8.64612357 L8.63536187,131.506739 C8.91392193,137.066043 11.9780826,142.069416 16.7136036,144.849068 Z" id="XMLID_126_" fill="url(#linearGradient-19)" fill-rule="nonzero"></path>
                            <path d="M8.07824175,150.964302 L223.962288,275.492709 C231.48341,279.662187 240.675892,274.380848 240.675892,265.763927 L240.675892,145.404998 C240.675892,139.845695 237.611731,134.842322 232.87621,132.06267 L16.9921637,7.81222798 C9.47104205,3.64275008 0.27856006,8.92408877 0.27856006,17.5410097 L0.27856006,137.621973 C0.27856006,143.181277 3.34272072,148.18465 8.07824175,150.964302 Z" id="XMLID_707_" fill="#5A94F3" fill-rule="nonzero"></path>
                            <path d="M229.53349,268.265614 C228.97637,268.265614 228.69781,268.265614 228.419249,267.987649 L12.5352027,143.459242 C10.3067222,142.347382 9.19248199,140.12366 9.19248199,137.621973 L9.19248199,17.5410097 C9.19248199,15.8732186 10.5852823,15.039323 11.6995225,15.039323 C12.2566427,15.039323 12.5352027,15.039323 12.8137628,15.3172882 L228.69781,139.56773 C230.92629,140.67959 232.04053,142.903312 232.04053,145.404998 L232.04053,166.530353 C232.04053,168.476109 231.20485,170.143901 229.81205,171.533727 L225.633649,175.42524 C223.962288,177.093031 222.848048,179.316752 222.848048,181.818439 L222.848048,217.397984 C222.848048,221.567462 225.076529,225.736939 228.419249,227.960661 L228.419249,227.960661 C230.36917,229.350487 231.76197,231.574209 231.76197,234.075895 L231.76197,265.485962 C231.76197,266.319858 231.48341,266.875788 230.92629,267.153753 C230.92629,267.987649 230.09061,268.265614 229.53349,268.265614 L229.53349,268.265614 Z" id="XMLID_125_" fill="#EDF3FA" fill-rule="nonzero"></path>
                            <g id="XMLID_123_" transform="translate(227.818434, 187.923939)" fill="#A5CBEF" fill-rule="nonzero">
                                <path d="M1.99361612,28.9181143 C1.15793594,28.9181143 0.322255756,28.0842187 0.322255756,27.2503231 L0.322255756,1.67752535 C0.322255756,0.843629772 1.15793594,0.00973418966 1.99361612,0.00973418966 C2.8292963,0.00973418966 3.66497648,0.843629772 3.66497648,1.67752535 L3.66497648,27.2503231 C3.66497648,28.0842187 2.8292963,28.9181143 1.99361612,28.9181143 Z" id="XMLID_124_"></path>
                            </g>
                        </g>
                        <g id="编组" transform="translate(227.644380, 170.959410)">
                            <path d="M60.8866273,81.5664734 C60.8866273,84.350312 58.9416937,85.4638476 56.4410655,84.0719283 L5.31710124,53.7280865 C2.81647256,52.3361672 0.871539146,48.7171769 0.871539146,45.9333382 L0.315843888,3.61899028 C0.315843888,0.835151605 2.2607773,-0.278383868 4.76140597,1.11353547 L56.4410655,31.4573771 C58.9416937,32.8492964 60.8866273,36.4682867 60.8866273,39.2521254 L60.8866273,81.5664734 Z" id="XMLID_434_" fill="#3C5185" fill-rule="nonzero"></path>
                            <path d="M60.8866273,81.2880892 L60.8866273,51.7793994 C60.6087795,51.2226317 60.3309322,50.665864 60.0530844,50.3874801 C58.9416937,48.9955608 56.9967606,48.7171769 55.3296747,48.9955608 C53.6625889,49.2739446 51.9955032,50.1090962 50.606265,50.9442478 C48.383484,52.0577833 46.1607029,53.1713188 43.6600742,53.4497026 C41.1594455,53.7280865 38.6588169,53.1713188 36.7138835,51.2226317 C34.76895,49.5523285 33.9354072,46.7684898 31.7126262,45.6549544 C29.4898451,44.8198027 27.267064,45.6549544 25.044283,46.4901059 C20.3208733,47.8820253 14.486073,47.8820253 11.1519015,44.263035 C9.20696804,42.3143479 7.81772992,38.9737415 5.03925361,38.1385899 C4.76140597,38.1385899 4.76140597,38.1385899 4.48355834,38.1385899 C3.37216782,37.860206 1.98292967,38.4169738 1.14938678,38.9737415 L1.14938678,45.9333382 C1.14938678,48.7171769 3.09432019,52.3361672 5.59494889,53.7280865 L10.040511,56.2335415 C12.8189873,57.9038444 15.8753112,59.5741479 18.6537875,61.2444508 C26.7113688,65.9769765 34.76895,70.9878864 42.8265314,75.7204121 L56.9967606,84.0719283 C57.5524557,84.350312 58.1081513,84.6286956 58.6638464,84.6286956 C58.9416937,84.6286956 58.9416937,84.6286956 59.2195415,84.6286956 C60.3309322,84.350312 60.8866273,82.9583927 61.1644751,81.844857 C60.8866273,81.5664734 60.8866273,81.2880892 60.8866273,81.2880892 Z" id="XMLID_121_" fill="url(#linearGradient-20)" fill-rule="nonzero"></path>
                            <path d="M59.2195415,82.680009 L59.2195415,40.3656609 C59.2195415,37.5818222 57.2746084,33.9628319 54.7739796,32.5709126 L3.09432019,2.22707094 C2.2607773,1.67030321 1.42723441,1.67030321 0.871539146,1.67030321 C1.70508204,0.556767737 3.09432019,0.278383868 4.76140597,1.11353547 L56.4410655,31.4573771 C58.9416937,32.8492964 60.8866273,36.4682867 60.8866273,39.2521254 L60.8866273,81.5664734 C60.8866273,83.2367763 60.0530844,84.350312 58.9416937,84.6286956 C59.2195415,84.0719283 59.2195415,83.5151605 59.2195415,82.680009 Z" id="XMLID_432_" fill="url(#linearGradient-21)" fill-rule="nonzero"></path>
                        </g>
                        <g id="XMLID_677_" transform="translate(65.424109, 32.225576)">
                            <path d="M1.15541503,1.95506109 L0.876014667,2.23297857 C0.317213945,2.78881352 0.0378135828,3.62256595 0.0378135828,4.45631838 L0.0378135828,52.2581244 C0.0378135828,54.2035467 1.4348154,56.7048039 3.11121757,57.8164738 L64.579297,92.834076 C65.4174985,93.3899109 66.2556993,93.3899109 67.3733009,93.3899109 L67.3733009,93.3899109 C69.3291033,93.1119932 70.7261055,91.4444884 70.7261055,89.4990665 L70.7261055,41.1414253 C70.7261055,39.1960029 69.3291033,36.6947456 67.3733009,35.5830757 L6.18462154,0.843391188 C4.78761974,-0.26827872 2.27301648,0.287556233 1.15541503,1.95506109 Z" id="XMLID_680_" fill="url(#linearGradient-22)" fill-rule="nonzero"></path>
                            <path d="M3.39061793,2.51089604 C1.71421576,1.39922614 0.0378135828,2.23297857 0.0378135828,4.45631838 L0.0378135828,52.2581244 C0.0378135828,54.2035467 1.4348154,56.7048039 3.11121757,57.8164738 L64.579297,93.1119932 C66.2556993,94.2236636 67.652701,93.3899109 67.652701,91.1665712 L67.652701,42.8089302 C67.652701,40.8635078 66.2556993,38.3622505 64.2998969,37.2505806 L3.39061793,2.51089604 Z" id="XMLID_679_" fill="url(#linearGradient-23)" fill-rule="nonzero"></path>
                            <path d="M22.3898426,26.1338815 C19.3164386,24.4663767 16.8018353,25.8559641 16.8018353,29.1909738 C16.8018353,32.5259835 19.3164386,36.9726632 22.3898426,38.9180855 C25.4632466,40.8635078 27.9778498,39.4739204 27.9778498,35.8609933 C27.9778498,32.2480661 25.4632466,27.8013864 22.3898426,26.1338815 Z" id="XMLID_414_" fill="url(#linearGradient-24)" fill-rule="nonzero"></path>
                            <path d="M54.8002844,47.8114447 L39.712665,58.9281436 L33.5658571,46.9776923 L18.4782375,53.3697943 L0.317213945,43.6426826 L0.317213945,52.2581244 C0.317213945,54.2035467 1.71421576,56.7048039 3.39061793,57.8164738 L64.8586977,93.1119932 C66.5351,94.2236636 67.9321016,93.3899109 67.9321016,91.1665712 L67.9321016,83.3848818 L67.9321016,70.8785952 L54.8002844,47.8114447 Z" id="XMLID_413_" fill="url(#linearGradient-25)" fill-rule="nonzero"></path>
                            <polygon id="XMLID_412_" fill="#2D3D64" fill-rule="nonzero" opacity="0.3" points="54.8002844 47.8114447 54.8002844 62.8189886 50.8886795 57.5385566 45.859473 61.1514839 45.859473 59.7618963 39.4332646 58.9281436"></polygon>
                            <polygon id="XMLID_678_" fill="#2D3D64" fill-rule="nonzero" opacity="0.3" points="33.2864567 46.9776923 33.2864567 50.5906195 30.2130527 50.5906195 29.3748516 53.3697943 27.9778498 51.4243719 18.1988371 53.3697943"></polygon>
                        </g>
                        <g id="编组复制-19" transform="translate(150.630716, 104.869670)">
                            <path d="M31.1530449,4.21177956 C16.1376149,-4.44239573 3.62475658,2.53677789 3.62475658,20.1242954 C3.62475658,37.7118129 15.8595514,59.2076677 31.1530449,67.8618428 C46.1684749,76.5160184 58.6813334,69.5368446 58.6813334,51.9493271 C58.6813334,34.3618096 46.4465384,12.8659549 31.1530449,4.21177956 Z" id="XMLID_129_" fill="url(#linearGradient-26)" fill-rule="nonzero"></path>
                            <path d="M27.5382191,5.04928039 C12.5227891,-3.6048949 0.00993083995,3.37427873 0.00993083995,20.9617963 C0.00993083995,38.5493138 12.2447256,60.0451684 27.5382191,68.699344 C42.5536491,77.353519 55.0665076,70.3743453 55.0665076,52.786828 C55.0665076,35.1993104 42.8317127,13.7034557 27.5382191,5.04928039 Z" id="XMLID_128_" fill="url(#linearGradient-27)" fill-rule="nonzero"></path>
                            <path d="M40.329141,46.0868213 L25.0356475,47.761823 C23.3672664,48.0409899 21.1427582,45.5284874 21.1427582,43.5743188 L21.1427582,25.7076343 C21.1427582,23.7534657 23.3672664,23.4742988 25.0356475,25.4284674 L40.329141,41.6201502 C41.9975221,43.2951519 41.9975221,45.8076544 40.329141,46.0868213 L25.0356475,47.761823 C23.3672664,48.0409899 21.1427582,45.5284874 21.1427582,43.5743188 L21.1427582,25.7076343 C21.1427582,23.7534657 23.3672664,23.4742988 25.0356475,25.4284674 L40.329141,41.6201502 C41.9975221,43.2951519 41.9975221,45.8076544 40.329141,46.0868213 Z" id="XMLID_127_" fill="url(#linearGradient-28)" fill-rule="nonzero"></path>
                        </g>
                    </g>
                </g>
            </g>
        </g>
    </g>
</svg>