<?xml version="1.0" encoding="UTF-8"?>
<svg width="36px" height="36px" viewBox="0 0 36 36" version="1.1" xmlns="http://www.w3.org/2000/svg" xmlns:xlink="http://www.w3.org/1999/xlink">
    <!-- Generator: Sketch 63 (92445) - https://sketch.com -->
    <title>编组</title>
    <desc>Created with Sketch.</desc>
    <defs>
        <rect id="path-1" x="0" y="0" width="36" height="36" rx="18"></rect>
    </defs>
    <g id="页面-1" stroke="none" stroke-width="1" fill="none" fill-rule="evenodd">
        <g id="用户管理-用户组-权限" transform="translate(-1255.000000, -15.000000)">
            <g id="编组-31" transform="translate(1255.000000, 15.000000)">
                <g id="编组">
                    <g id="编组-34" transform="translate(-0.000126, 0.000000)">
                        <mask id="mask-2" fill="white">
                            <use xlink:href="#path-1"></use>
                        </mask>
                        <use id="蒙版" fill="#DDEBFF" xlink:href="#path-1"></use>
                        <g id="编组-33" mask="url(#mask-2)">
                            <g transform="translate(1.800000, 4.114286)" id="编组-13">
                                <g>
                                    <path d="M6.97282912,24.2295264 L8.56099526,23.248827 C13.2014774,20.3833095 19.0621193,20.3833095 23.7026014,23.248827 L25.2907675,24.2295264 C29.009501,26.5258602 31.2734045,30.5845782 31.2734045,34.9551762 L31.2734045,34.9551762 L31.2734045,34.9551762 L0.990192199,34.9551762 C0.990192199,30.5845782 3.25409571,26.5258602 6.97282912,24.2295264 Z" id="Rectangle" fill="#EDF5FF"></path>
                                    <polygon id="Rectangle" fill="#EFF6FF" points="13.004493 16.3986203 19.0849521 16.3986203 18.6771709 23.2274866 13.4122742 23.2274866"></polygon>
                                    <path d="M15.2853331,23.6035394 L16.804112,23.6035394 C17.3563968,23.6035394 17.804112,24.0512547 17.804112,24.6035394 C17.804112,24.6430279 17.801773,24.6824816 17.7971073,24.7216934 L17.6589675,25.882654 C17.5991129,26.3856874 17.1725541,26.7645 16.6659723,26.7645 L15.4234728,26.7645 C14.916891,26.7645 14.4903322,26.3856874 14.4304776,25.882654 L14.2923378,24.7216934 C14.2270832,24.1732773 14.618763,23.6757988 15.1671791,23.6105442 C15.2063909,23.6058784 15.2458447,23.6035394 15.2853331,23.6035394 Z" id="矩形" fill="#AACAFD"></path>
                                    <polygon id="矩形" fill="#AACAFD" points="14.7046669 26.4777496 17.4021704 26.4777496 18.1209971 32.2809733 16.1317983 35.6622363 14.1425996 32.2809733"></polygon>
                                    <polygon id="Path-29" fill="#FFFFFF" transform="translate(17.705123, 23.437439) scale(-1, 1) translate(-17.705123, -23.437439) " points="16.5390766 26.2525975 19.6608709 23.4374391 16.534122 20.6222806 15.7493747 21.4617751"></polygon>
                                    <polygon id="Path-29" fill="#FFFFFF" points="13.2182762 26.2525975 16.3400705 23.4374391 13.2133215 20.6222806 12.4285742 21.4617751"></polygon>
                                    <path d="M9.42137417,14.1747586 C10.5426384,14.2926082 11.5694817,13.2665996 11.7028741,11.9974551 C11.8362666,10.7283107 10.9564771,10.3551956 9.83521292,10.237346 C8.71394873,10.1194964 7.77580977,10.3015395 7.64241732,11.5706839 C7.50902486,12.8398283 8.30010999,14.056909 9.42137417,14.1747586 Z" id="Oval" fill="#FFFFFF"></path>
                                    <path d="M22.7193046,14.1747586 C21.5980404,14.2926082 20.5711971,13.2665996 20.4378046,11.9974551 C20.3044121,10.7283107 21.1842016,10.3551956 22.3054658,10.237346 C23.42673,10.1194964 24.364869,10.3015395 24.4982614,11.5706839 C24.6316539,12.8398283 23.8405687,14.056909 22.7193046,14.1747586 Z" id="Oval" fill="#FFFFFF"></path>
                                    <path d="M16.0854828,20.105375 C18.581041,20.105375 20.5472176,18.0483503 21.2924422,16.4888595 C22.3419329,14.2926478 22.5246295,10.4816876 22.5246295,7.50051893 C22.5246295,2.05040009 18.8296065,2.23753055 15.7437081,2.23753055 C12.6578096,2.23753055 9.61604918,2.05040009 9.61604918,7.50051893 C9.61604918,10.5069665 9.78868606,14.294854 10.86902,16.4888595 C11.7489104,18.2757926 13.5899246,20.105375 16.0854828,20.105375 Z" id="Oval" fill="#FFFFFF"></path>
                                    <path d="M9.66450437,10.6435196 C9.45353936,10.3500454 9.14629462,10.2206775 8.74277017,10.255416 C8.03811252,6.42887214 8.03811252,3.17157398 11.2698572,1.08717914 C14.5016019,-0.997215708 19.83976,0.343531178 20.6174793,1.56068455 C21.8381675,1.56068455 22.9937797,2.35752627 23.5787833,3.89516248 C24.1637869,5.4327987 23.8610951,8.2364042 23.468451,10.2772269 C23.0165879,10.2389535 22.6753731,10.3610511 22.4448064,10.6435196 C22.4448064,7.74285179 21.864142,5.77455998 21.6154266,5.16184696 C20.9000225,6.714969 19.9585061,7.41756306 18.6729044,7.62098313 C18.9891539,6.69215425 19.1413843,5.70715756 19.0126375,4.97526419 C18.0989641,6.27893501 16.0495199,7.08465862 14.4967894,7.40126606 C13.5691992,7.59040509 11.4894891,7.66659604 9.98274323,7.16303967 C9.74560463,8.2672618 9.62829355,9.16015255 9.66450437,10.6435196 Z" id="路径-19" fill="#AACAFD"></path>
                                </g>
                            </g>
                        </g>
                    </g>
                </g>
            </g>
        </g>
    </g>
</svg>